<?xml version="1.0" standalone="no"?>
<!DOCTYPE svg PUBLIC "-//W3C//DTD SVG 20010904//EN"
 "http://www.w3.org/TR/2001/REC-SVG-20010904/DTD/svg10.dtd">
<svg version="1.0" xmlns="http://www.w3.org/2000/svg"
 width="300.000000pt" height="300.000000pt" viewBox="0 0 300.000000 300.000000"
 preserveAspectRatio="xMidYMid meet">
<metadata>
Created by potrace 1.10, written by Peter Selinger 2001-2011
</metadata>
<g transform="translate(0.000000,300.000000) scale(0.100000,-0.100000)"
fill="#000000" stroke="none">
<path d="M1476 1933 c38 -85 43 -100 37 -106 -3 -3 -39 10 -81 29 -41 19 -77
33 -79 31 -2 -2 4 -21 12 -42 15 -34 15 -41 1 -76 -9 -22 -16 -41 -16 -43 0
-2 26 10 59 25 59 28 111 45 111 36 0 -2 -16 -39 -35 -81 -19 -43 -35 -79 -35
-81 0 -2 19 4 43 14 40 17 44 17 83 0 l42 -17 -36 79 c-19 43 -32 82 -29 86 4
3 40 -8 80 -25 39 -18 75 -32 79 -32 4 0 0 16 -9 36 -16 33 -16 39 -1 80 8 24
14 44 12 44 -17 0 -174 -81 -174 -90 0 -6 -4 -8 -10 -5 -15 9 -12 25 5 25 8 0
15 5 15 11 0 6 14 41 30 79 17 38 30 71 30 74 0 3 -18 -1 -40 -9 -34 -12 -45
-12 -75 0 -19 8 -37 15 -40 15 -2 0 7 -26 21 -57z m94 3 c-1 -6 -9 -27 -20
-46 l-19 -35 -16 40 c-10 22 -19 43 -21 46 -2 4 14 6 36 6 23 0 40 -4 40 -11z
m-103 -132 c-6 -6 -26 -16 -42 -21 -30 -10 -30 -10 -30 27 l0 37 42 -15 c33
-13 40 -19 30 -28z m205 6 l-4 -39 -32 13 c-41 16 -39 36 4 52 19 7 35 13 35
13 0 1 -1 -17 -3 -39z m-103 -131 c1 -4 -17 -6 -38 -6 -34 1 -38 3 -30 18 5
10 14 30 20 46 l11 28 18 -40 c10 -22 19 -43 19 -46z"/>
<path d="M7 1479 c3 -19 16 -72 28 -119 31 -125 45 -120 82 30 27 110 28 120
12 120 -13 0 -20 -14 -29 -57 -29 -142 -25 -136 -39 -68 -22 107 -27 120 -44
123 -14 3 -16 -2 -10 -29z"/>
<path d="M201 1487 c-17 -47 -53 -208 -48 -214 12 -11 37 7 37 27 0 16 6 20
34 20 28 0 35 -4 38 -22 4 -28 38 -38 37 -11 0 10 -13 63 -27 117 -21 76 -31
100 -45 102 -11 1 -21 -6 -26 -19z m34 -17 c3 -5 1 -10 -4 -10 -6 0 -11 5 -11
10 0 6 2 10 4 10 3 0 8 -4 11 -10z m3 -68 c9 -40 9 -42 -13 -42 -21 0 -22 2
-12 45 6 25 12 44 13 42 2 -1 7 -22 12 -45z"/>
<path d="M363 1495 c-45 -32 -50 -159 -7 -206 33 -37 95 -20 112 31 9 26 9 30
-6 30 -10 0 -23 -9 -30 -20 -16 -25 -48 -26 -62 -1 -17 33 -12 106 8 124 24
22 39 21 54 -3 16 -25 50 -28 41 -2 -10 30 -46 62 -68 62 -11 0 -30 -7 -42
-15z"/>
<path d="M500 1390 c0 -113 1 -120 20 -120 18 0 20 7 20 55 l0 55 35 0 35 0 0
-55 c0 -42 3 -55 15 -55 13 0 15 20 15 120 0 100 -2 120 -15 120 -11 0 -15
-12 -15 -45 0 -45 0 -45 -35 -45 -35 0 -35 0 -35 45 0 38 -3 45 -20 45 -19 0
-20 -7 -20 -120z"/>
<path d="M680 1388 l0 -118 65 0 c58 0 65 2 65 20 0 17 -7 20 -45 20 -44 0
-45 1 -45 33 0 32 1 32 40 29 35 -4 40 -2 40 17 0 18 -6 21 -40 21 -38 0 -40
2 -40 31 0 30 1 30 43 27 36 -2 42 0 45 17 2 18 -3 20 -63 20 l-65 0 0 -117z"/>
<path d="M850 1505 c0 0 -1 -53 -3 -118 -2 -106 0 -117 16 -117 14 0 17 9 17
51 0 49 1 50 28 47 25 -3 27 -7 30 -50 3 -42 6 -48 26 -48 21 0 22 2 14 53
-10 60 -9 59 -2 113 7 51 -8 65 -75 68 -28 1 -51 2 -51 1z m84 -41 c35 -14 11
-64 -31 -64 -13 0 -23 -4 -23 -10 0 -5 -5 -10 -12 -10 -9 0 -9 3 0 12 7 7 12
27 12 45 0 34 16 42 54 27z"/>
<path d="M1057 1499 c-41 -24 -58 -113 -36 -178 13 -36 35 -51 78 -51 48 0 73
47 69 127 -6 91 -54 135 -111 102z m67 -51 c34 -49 8 -143 -37 -136 -46 6 -60
104 -21 143 21 21 40 19 58 -7z"/>
<path d="M1200 1390 c0 -115 1 -120 21 -120 19 0 20 5 17 80 -2 44 -1 80 2 80
3 0 19 -35 35 -78 20 -49 37 -78 48 -80 15 -3 17 9 17 117 0 99 -3 121 -15
121 -11 0 -15 -18 -17 -82 l-3 -82 -34 82 c-25 62 -38 82 -52 82 -18 0 -19 -9
-19 -120z"/>
<path d="M1490 1485 c-34 -36 -40 -136 -11 -182 35 -56 105 -42 125 25 6 17 3
22 -12 22 -11 0 -22 -9 -25 -20 -8 -30 -51 -26 -65 5 -34 74 15 170 59 117 24
-30 53 -30 44 1 -9 29 -42 57 -69 57 -13 0 -33 -11 -46 -25z"/>
<path d="M1666 1487 c-44 -44 -42 -160 3 -201 28 -25 79 -17 104 16 37 50 19
184 -28 202 -31 11 -56 6 -79 -17z m78 -39 c18 -26 21 -90 6 -119 -6 -11 -21
-19 -35 -19 -30 0 -45 26 -45 81 0 69 43 101 74 57z"/>
<path d="M1830 1391 c0 -99 3 -121 15 -121 11 0 15 18 17 81 l3 82 33 -82 c26
-62 38 -81 53 -81 19 0 19 7 17 117 -3 103 -5 118 -20 121 -16 3 -18 -5 -18
-67 0 -38 4 -81 10 -95 5 -14 6 -26 2 -26 -4 0 -23 42 -43 93 -23 58 -42 93
-52 95 -15 3 -17 -10 -17 -117z"/>
<path d="M2022 1494 c-19 -13 -22 -24 -20 -57 3 -42 3 -43 78 -77 24 -11 23
-38 -1 -51 -19 -10 -25 -9 -40 10 -15 19 -49 30 -49 15 0 -11 23 -49 34 -56
21 -14 73 -8 89 10 10 10 17 35 17 55 0 39 -20 59 -73 71 -22 5 -28 12 -25 29
4 30 43 35 58 8 12 -24 40 -28 40 -7 0 24 -41 66 -64 66 -12 0 -32 -7 -44 -16z"/>
<path d="M2150 1482 c0 -19 4 -21 25 -16 l25 6 0 -101 c0 -94 1 -101 20 -101
19 0 20 7 20 101 l0 101 25 -6 c21 -5 25 -3 25 16 0 22 -4 23 -70 23 -66 0
-70 -1 -70 -23z"/>
<path d="M2315 1403 c-15 -59 -30 -114 -32 -120 -3 -8 3 -13 15 -13 13 0 22 9
26 25 5 21 12 25 41 25 31 0 35 -3 35 -25 0 -18 5 -25 20 -25 25 0 25 -7 -9
125 -23 89 -33 111 -48 113 -17 3 -23 -11 -48 -105z m70 -29 c13 -29 14 -45 4
-38 -5 3 -7 10 -4 15 4 5 -5 9 -19 9 -23 0 -25 3 -20 33 10 56 16 64 24 31 4
-18 11 -40 15 -50z"/>
<path d="M2470 1391 c0 -99 3 -121 15 -121 11 0 15 18 17 81 l3 82 33 -82 c23
-56 39 -81 50 -81 15 0 17 14 17 120 0 110 -2 120 -18 120 -17 0 -18 -8 -15
-80 2 -44 1 -80 -2 -80 -3 0 -19 35 -35 77 -20 50 -37 79 -48 81 -15 3 -17 -9
-17 -117z"/>
<path d="M2630 1482 c0 -19 4 -21 25 -16 l25 6 0 -101 c0 -95 1 -101 21 -101
19 0 20 5 18 98 -2 96 -1 97 22 97 17 0 24 6 24 20 0 17 -8 19 -68 20 -63 0
-67 -1 -67 -23z"/>
<path d="M2790 1391 c0 -109 2 -121 18 -121 15 0 17 11 15 117 -2 98 -5 119
-17 121 -14 3 -16 -13 -16 -117z"/>
<path d="M2860 1390 c0 -115 1 -120 21 -120 20 0 21 4 16 73 -3 39 -8 86 -11
102 -3 17 -3 23 0 15 3 -8 16 -37 28 -65 13 -27 29 -67 37 -87 8 -25 19 -38
31 -38 24 0 23 22 -3 38 -19 12 -19 15 -6 36 21 31 27 161 8 161 -11 0 -14
-17 -12 -79 2 -53 -1 -76 -8 -71 -6 3 -11 12 -11 18 0 27 -60 137 -75 137 -13
0 -15 -19 -15 -120z"/>
<path d="M1556 1155 c4 -8 8 -15 10 -15 2 0 4 7 4 15 0 8 -4 15 -10 15 -5 0
-7 -7 -4 -15z"/>
<path d="M1132 1128 c-17 -17 -15 -93 2 -108 8 -6 25 -10 38 -8 18 2 24 10 26
36 3 27 0 32 -17 32 -22 0 -29 -16 -9 -22 6 -2 9 -12 5 -21 -4 -10 -12 -14
-22 -11 -12 5 -15 17 -13 48 3 36 6 41 31 44 15 2 27 8 27 13 0 13 -54 11 -68
-3z"/>
<path d="M1260 1073 l0 -63 35 0 c19 0 35 4 35 9 0 4 -11 6 -25 3 -22 -4 -25
-1 -25 23 0 22 4 26 20 22 11 -3 20 -1 20 4 0 5 -9 9 -20 9 -13 0 -20 7 -20
20 0 15 7 20 25 20 14 0 25 4 25 10 0 5 -16 9 -35 7 l-35 -2 0 -62z"/>
<path d="M1390 1076 c0 -42 4 -66 11 -66 7 0 10 15 7 40 -5 51 2 51 24 0 25
-59 38 -50 38 26 0 45 -3 63 -11 58 -7 -4 -9 -22 -6 -45 3 -22 3 -39 1 -39 -2
0 -13 18 -24 39 -31 62 -40 60 -40 -13z"/>
<path d="M1535 1130 c-2 -3 -3 -31 -4 -62 l0 -58 34 0 c19 0 35 4 35 9 0 4
-11 6 -25 3 -22 -4 -25 -1 -25 23 0 22 4 26 20 22 11 -3 23 -1 26 4 3 5 -6 9
-20 9 -19 0 -26 5 -26 20 0 15 7 20 25 20 14 0 25 3 25 8 0 8 -60 10 -65 2z"/>
<path d="M1660 1133 c0 -26 35 -123 44 -123 11 0 48 121 40 130 -9 8 -23 -23
-30 -64 -7 -44 -17 -35 -28 27 -4 20 -11 37 -16 37 -6 0 -10 -3 -10 -7z"/>
<path d="M1804 1131 c-2 -2 -4 -31 -4 -63 l0 -58 35 0 c19 0 35 4 35 9 0 4
-11 6 -25 3 -22 -4 -25 -1 -25 23 0 21 4 25 19 20 11 -3 22 -1 26 5 4 6 -4 10
-19 10 -19 0 -26 5 -26 20 0 15 7 20 25 20 14 0 25 4 25 10 0 9 -57 10 -66 1z"/>
</g>
</svg>
