<?xml version="1.0" encoding="utf-8"?>
<!-- Generator: Adobe Illustrator 16.0.0, SVG Export Plug-In . SVG Version: 6.00 Build 0)  -->
<!DOCTYPE svg PUBLIC "-//W3C//DTD SVG 1.1//EN" "http://www.w3.org/Graphics/SVG/1.1/DTD/svg11.dtd">
<svg version="1.1" id="Calque_1" xmlns="http://www.w3.org/2000/svg" xmlns:xlink="http://www.w3.org/1999/xlink" x="0px" y="0px"
	 width="176px" height="71px" viewBox="0 0 176 71" enable-background="new 0 0 176 71" xml:space="preserve">
<g>
	<path d="M24.041,35.255c0.967,0,1.382,0.967,1.382,2.487v10.5c0,5.526-2.764,5.666-3.869,5.112c-1.382-0.69-1.658-3.041-1.658-5.25
		V37.742c0-1.521,0.553-2.487,1.52-2.487v-0.553h-5.665v0.553c0.967,0,1.382,0.967,1.382,2.487v11.469
		c0,2.072,1.244,5.389,4.145,5.664c2.901,0.139,4.836-1.658,4.836-6.771V37.742c0-1.521,0.552-2.487,1.381-2.487v-0.553h-3.454
		V35.255L24.041,35.255z"/>
	<path d="M34.127,34.702h-5.389v0.553c0.967,0,1.52,0.967,1.52,2.487v13.541c0,1.52-0.552,2.485-1.52,2.485v0.554h5.803
		c1.244,0,2.487-0.691,3.731-2.211c1.934-2.625,2.487-8.289,1.52-11.744C38.825,35.945,36.614,34.702,34.127,34.702L34.127,34.702z
		 M36.891,49.623c-0.276,1.382-0.691,3.869-3.178,3.869c-0.691,0-0.691-0.276-0.691-1.797V37.326c0-1.52,0-1.657,0.691-1.657
		c0.967,0,1.658-0.139,2.487,1.52C37.581,39.813,37.581,46.168,36.891,49.623L36.891,49.623z"/>
	<path d="M78.478,24.616h-2.072l2.763-6.908c0,0,0,0,5.389,0c0,0,0-0.138,0,6.908h-2.487c0,0,0,0,0,1.106c0,0,0,0,15.06,0
		c0,0,0,0,0-1.106h-2.485c0,0,0,0,0-10.086h3.729c1.382,0,2.487-1.243,2.487-2.349V2.51c0-0.829-0.969-2.21-2.626-2.21l0,0H82.071
		v1.105h1.935l-8.98,23.212h-1.935v1.106h5.388L78.478,24.616L78.478,24.616z M94.644,1.404h1.797c0.414,0,0.689,0.276,0.689,0.691
		v10.639c0,0.414-0.275,0.69-0.689,0.69h-1.797V8.036V6.792V1.404L94.644,1.404z M88.15,1.404h2.901v23.212H88.15V1.404L88.15,1.404
		z M84.558,3.615v12.849h-5.112L84.558,3.615L84.558,3.615z"/>
	<path d="M45.733,53.494c-0.829-0.14-0.967-0.554-0.967-1.937v-6.631c1.934,0.137,2.349,0.688,2.901,4.282h0.276v-9.534h-0.276
		c-0.552,3.594-0.967,4.008-2.901,4.282v-6.631c0-1.52,0.138-1.796,0.691-1.657h1.52c2.764,0.138,2.902,4.006,3.04,4.975h0.415
		v-5.942h-9.81v0.553c0.829,0,1.382,0.967,1.382,2.487v13.541c0,1.52-0.553,2.485-1.382,2.485v0.554h9.948l0.691-5.941h-0.415
		C49.602,52.524,48.22,53.769,45.733,53.494L45.733,53.494z"/>
	<path d="M14.37,30.695l-5.803-0.138v1.105h1.796L1.935,53.492H0v1.105h5.112v-1.105H3.039l2.625-6.494c0,0,0.138,0,5.112,0
		c0,0,0,0,0,6.494H8.427c0,0,0,0.138,0,1.105c0,0,0.415,0,8.152,0v-1.105h-2.21L14.37,30.695L14.37,30.695z M10.777,46.168H6.079
		l4.698-12.157V46.168L10.777,46.168z"/>
	<path d="M118.409,30.557L118.409,30.557h-9.119v1.105h2.211v21.831h-2.486v1.105c1.935,0,4.974,0,8.428,0c0,0,0-0.139,0-1.105
		h-2.35c0,0,0,0,0-9.535h3.594c1.242,0,2.211-1.241,2.211-2.071V32.63C120.896,31.938,120.065,30.557,118.409,30.557L118.409,30.557
		z M117.44,42.302c0,0.414-0.275,0.688-0.689,0.688h-1.658v-5.11v-1.244v-4.974h1.658c0.414,0,0.689,0.276,0.689,0.552V42.302
		L117.44,42.302z"/>
	<path d="M135.541,46.031c0.968,0,1.384,0.969,1.384,2.487v3.729c0,0.414,0,1.105-0.691,1.521c-0.414,0.277-0.967,0.277-1.383,0.277
		c-0.275,0-0.689,0-0.967-0.416c-0.828-0.554-1.242-1.658-1.658-3.593c-0.275-1.244-0.414-3.315-0.414-5.389
		c0-2.211,0.139-4.283,0.414-5.527c0.416-1.934,0.83-3.039,1.658-3.591c0.276-0.275,0.69-0.414,0.967-0.414
		c1.105,0,3.594,1.934,4.422,6.216h0.414v-6.907h-0.414c-0.275,0.553-0.275,1.521-1.243,1.244c-0.554-0.276-1.657-1.105-3.179-1.244
		c-1.104,0-2.349,0.553-3.453,1.796c-1.658,1.658-2.487,4.975-2.487,8.428c0,3.316,0.829,6.633,2.487,8.428
		c1.104,1.105,2.349,1.797,3.453,1.797c0.554,0,1.105,0,1.658-0.139c0.416-0.137,2.764-0.688,3.178-1.381v-4.836
		c0-1.52,0.554-2.488,1.521-2.488v-0.551h-5.666L135.541,46.031L135.541,46.031z"/>
	<path d="M149.496,35.255c0.968,0,1.382,0.967,1.382,2.487v10.5c0,5.526-2.763,5.666-3.867,5.112
		c-1.383-0.69-1.658-3.041-1.658-5.25V37.742c0-1.521,0.553-2.487,1.52-2.487v-0.553h-5.664v0.553c0.967,0,1.381,0.967,1.381,2.487
		v11.469c0,2.072,1.244,5.389,4.146,5.664c2.9,0.139,4.836-1.658,4.836-6.771V37.742c0-1.521,0.553-2.487,1.381-2.487v-0.553h-3.456
		V35.255L149.496,35.255z"/>
	<path d="M159.583,53.494c-0.968-0.14-0.968-0.554-0.968-1.937v-6.631c1.935,0.137,2.211,0.688,2.764,4.282h0.414v-9.534h-0.414
		c-0.553,3.594-0.829,4.008-2.764,4.282v-6.631c0-1.52,0.139-1.796,0.69-1.657h1.521c2.764,0.138,2.901,4.006,3.04,4.975h0.275
		v-5.942h-9.811v0.553c0.968,0,1.52,0.967,1.52,2.487v13.541c0,1.52-0.552,2.485-1.52,2.485v0.554h9.948l0.829-5.941h-0.553
		C163.313,52.524,162.069,53.769,159.583,53.494L159.583,53.494z"/>
	<path d="M165.386,34.702v5.803h0.414c0.139-0.691,0.139-2.072,0.969-3.593c0.967-1.658,2.072-1.243,2.485-1.243v15.612
		c0,1.521-0.553,2.486-1.381,2.486v0.553h5.526v-0.553c-0.829,0-1.383-0.967-1.383-2.486V35.669c0.414,0,1.521-0.415,2.487,1.243
		c0.829,1.521,0.829,2.9,0.968,3.593h0.275v-5.803H165.386L165.386,34.702z"/>
	<path d="M60.379,48.104l-3.592-13.403h-4.836v0.553c1.244,0,1.658,0.414,1.658,2.487v13.541c0,1.52-0.414,2.485-1.52,2.485v0.554
		h3.869v-0.554c-0.967,0-1.52-0.967-1.52-2.485V37.188l4.697,17.134h0.415l4.836-17.134v14.095c0,1.52-0.553,2.485-1.52,2.485v0.554
		h6.079v-0.554c-0.967,0-1.52-0.967-1.52-2.485V37.742c0-1.521,0.552-2.487,1.52-2.487v-0.553h-4.698L60.379,48.104L60.379,48.104z"
		/>
	<path d="M93.399,52.662l-3.314-8.014c0.967-0.414,1.796-1.105,2.35-2.625c0.689-1.797,0.275-4.145-0.414-5.389
		c-0.969-1.521-2.625-1.934-4.007-1.934h-5.389v0.553c0.829,0,1.381,0.967,1.381,2.486v13.541c0,1.521-0.552,2.486-1.381,2.486
		h0.138v0.553h5.389v-0.553c-0.829,0-1.381-0.967-1.381-2.486v-6.08h0.414l3.592,9.119h3.454v-0.553
		C93.953,53.769,93.815,53.908,93.399,52.662L93.399,52.662z M89.808,42.024c-0.553,2.625-2.21,2.212-3.04,2.212v-7.322
		c0-0.83,0.414-1.245,0.69-1.245c1.382-0.275,1.936,0.692,2.21,1.798C89.946,38.156,90.085,40.644,89.808,42.024L89.808,42.024z"/>
	<path d="M80.413,52.388l-4.421-17.686h-0.415l-4.283,17.132c-0.415,1.658-0.829,1.935-1.243,1.935v0.554h3.454v-0.554
		c-1.244,0-1.658-0.967-1.244-2.485l0.553-2.625h4.007l0.829,3.313c0.276,1.521-0.829,1.797-1.52,1.797v0.554h5.389v-0.554l0,0
		C81.242,53.769,80.689,53.63,80.413,52.388L80.413,52.388z M73.09,47.552l1.658-7.187l1.796,7.187H73.09L73.09,47.552z"/>
	<path d="M122.277,35.255c1.104,0,1.657,0.967,1.657,2.487v13.541c0,1.52-0.553,2.485-1.657,2.485v0.554h5.94v-0.554
		c-1.104,0-1.52-0.967-1.52-2.485V37.742c0-1.521,0.414-2.487,1.52-2.487v-0.553h-5.94V35.255L122.277,35.255z"/>
	<path d="M100.447,42.438c-2.211-1.104-2.901-2.625-2.901-3.866c0-0.691,0.276-3.18,1.936-3.18c2.486,0,3.314,3.868,3.729,5.389
		h0.414v-6.355h-0.414c-0.276,0.553-0.276,0.967-0.69,0.967c-0.967,0-1.797-0.967-3.73-0.967c-1.658,0-3.592,1.52-3.592,5.388
		c0,1.798,0.553,4.283,2.763,5.804c3.04,2.211,4.146,3.041,4.146,4.696c0,0.691-0.275,3.595-2.764,3.595
		c-1.796,0-3.039-2.902-3.178-4.009l-0.414-2.071h-0.415v7.047h0.415c0-0.553,0.139-0.967,0.275-0.967
		c0.968,0,2.625,0.967,3.73,0.967c4.145,0,4.836-3.73,4.836-5.664C104.593,46.447,103.349,43.957,100.447,42.438L100.447,42.438z"/>
	<path d="M0.414,68.138c0.829,0,0.967-0.274,1.105-0.967l0.967-4.697c0-0.14,0.138-0.276,0.138-0.416
		c0-0.414-0.415-0.551-0.83-0.551v-0.277h2.764v0.277c-0.829,0-0.967,0.274-1.105,0.967l-0.967,4.697c0,0.139,0,0.274,0,0.413
		c0,0.277,0.138,0.277,0.691,0.277h0.69c0.829,0,1.244-0.277,1.52-1.104h0.138l-0.276,1.521H0.414V68.138L0.414,68.138z"/>
	<path d="M7.875,65.099c0.138-0.553,0.553-1.383,1.244-1.383c0.415,0,0.691,0.276,0.691,0.553c0,0.69-0.553,0.83-0.967,0.83H7.875
		L7.875,65.099z M9.948,67.863C9.671,68,9.533,68,9.257,68c-1.244,0-1.52-0.689-1.52-1.521c0-0.414,0-0.827,0.138-1.104H8.98
		c0.829,0,1.658-0.137,1.658-0.967c0-0.691-0.69-1.105-1.381-1.105c-1.796,0-2.487,1.936-2.487,3.316
		c0,1.244,0.69,1.797,1.658,1.797c0.691,0,1.243-0.139,1.52-0.277V67.863L9.948,67.863z"/>
	<path d="M16.304,64.546c0-0.14,0-0.277,0-0.414c0,0,0-0.14-0.138-0.14c-0.138,0-0.552,0.414-0.829,0.691h-0.139
		c0.276-0.416,1.105-1.383,1.52-1.383c0.276,0,0.415,0.277,0.415,0.553c0,0.139,0,0.414,0,0.691l-0.276,1.381v0.139
		c0.276-0.828,1.105-2.764,2.21-2.764c0.415,0,0.691,0.277,0.691,0.691c0,0.274-0.138,0.414-0.138,0.69l-0.276,1.242v0.139
		c0.415-0.827,1.244-2.764,2.349-2.764c0.414,0,0.553,0.276,0.553,0.69c0,0.14,0,0.414,0,0.691l-0.691,2.625
		c0,0.137,0,0.275,0,0.275c0,0.139,0,0.139,0.138,0.139c0.138,0,0.553-0.414,0.829-0.691l0.138,0.139
		c-0.276,0.275-1.105,1.244-1.52,1.244c-0.276,0-0.415-0.139-0.415-0.416c0-0.274,0-0.553,0-0.688l0.691-2.625
		c0-0.14,0-0.276,0-0.416c0-0.137,0-0.274-0.276-0.274c-0.691,0-2.073,3.315-2.21,4.282h-0.829l0.69-3.592c0-0.14,0-0.276,0-0.416
		c0-0.137,0-0.274-0.138-0.274c-0.691,0-1.796,2.071-2.349,4.282h-0.829L16.304,64.546L16.304,64.546z"/>
	<path d="M24.594,67.033c0-1.105,0.829-3.316,1.935-3.316c0.276,0,0.414,0.416,0.414,0.691c0,1.244-0.967,3.455-1.796,3.455
		C24.87,67.863,24.594,67.724,24.594,67.033L24.594,67.033z M26.39,67.31c0,0.138,0,0.414,0,0.688c0,0.14,0.139,0.416,0.415,0.416
		c0.414,0,1.243-0.969,1.52-1.244l-0.138-0.139c-0.276,0.277-0.691,0.691-0.829,0.691c-0.138,0-0.138,0-0.138-0.139
		c0,0,0-0.139,0-0.275l0.829-3.869H27.22l-0.138,0.553l0,0c-0.139-0.276-0.276-0.69-0.829-0.69c-1.52,0-2.487,2.764-2.487,3.868
		c0,0.554,0.138,1.244,0.967,1.244c0.967,0,1.52-1.244,1.796-1.657l0,0L26.39,67.31L26.39,67.31z"/>
	<path d="M30.811,61.369c0.276-0.277,0.414-0.414,0.553-0.414c0.138,0,0.276,0.137,0.414,0.414l0.553,1.242h-0.415l-0.691-0.689
		l-1.105,0.689h-0.414L30.811,61.369L30.811,61.369z M31.778,67.171c-0.276,0.274-1.105,1.243-1.52,1.243
		c-0.276,0-0.414-0.139-0.414-0.416c0-0.274,0-0.553,0-0.688l0.553-2.764c0.138-0.14,0.138-0.277,0.138-0.414
		c0-0.14-0.138-0.14-0.138-0.14c-0.139,0-0.691,0.414-0.967,0.691h-0.138c0.415-0.416,1.105-1.383,1.658-1.383
		c0.276,0,0.415,0.277,0.415,0.553c0,0.139,0,0.414-0.139,0.691l-0.552,2.764c0,0.137,0,0.275,0,0.275c0,0.139,0,0.139,0.138,0.139
		c0.138,0,0.553-0.414,0.829-0.691L31.778,67.171L31.778,67.171z"/>
	<path d="M35.371,67.171c-0.414,0.413-1.243,1.243-1.796,1.243c-0.276,0-0.415-0.139-0.415-0.416c0-0.274,0-0.553,0.138-0.688
		l0.691-3.455h-0.967l0.138-0.414c0.967,0,1.52-0.413,1.796-1.52h0.276l-0.415,1.52h1.382v0.414h-1.382l-0.69,3.455
		c0,0.138-0.138,0.274-0.138,0.274c0,0.14,0.138,0.14,0.138,0.14c0.276,0,0.829-0.414,1.105-0.69L35.371,67.171L35.371,67.171z"/>
	<path d="M37.72,64.546c0-0.14,0-0.277,0-0.414c0,0,0-0.14-0.138-0.14c-0.138,0-0.553,0.414-0.829,0.691h-0.138
		c0.276-0.416,0.967-1.383,1.52-1.383c0.276,0,0.415,0.277,0.415,0.553c0,0.139,0,0.414,0,0.691l-0.139,0.691l0,0
		c0.139-0.416,0.691-1.937,1.52-1.937c0.415,0,0.553,0.276,0.553,0.553c0,0.277-0.276,0.554-0.553,0.554
		c-0.138,0-0.276-0.14-0.414-0.14c-0.277,0-1.244,1.244-1.796,4.008h-0.829L37.72,64.546L37.72,64.546z"/>
	<path d="M42.141,65.099c0-0.553,0.415-1.383,1.243-1.383c0.415,0,0.691,0.276,0.691,0.553c0,0.69-0.691,0.83-1.105,0.83H42.141
		L42.141,65.099z M44.213,67.863C43.937,68,43.66,68,43.522,68c-1.381,0-1.658-0.689-1.658-1.521c0-0.414,0.138-0.827,0.138-1.104
		h1.105c0.829,0,1.796-0.137,1.796-0.967c0-0.691-0.691-1.105-1.382-1.105c-1.934,0-2.625,1.936-2.625,3.316
		c0,1.244,0.691,1.797,1.796,1.797c0.691,0,1.105-0.139,1.382-0.277L44.213,67.863L44.213,67.863z"/>
	<path d="M50.292,67.033c0-0.968,0.691-3.316,1.796-3.316c0.276,0,0.553,0.277,0.553,0.691c0,0.967-0.967,3.455-1.934,3.455
		C50.569,67.863,50.292,67.724,50.292,67.033L50.292,67.033z M52.089,67.31c-0.138,0.138-0.138,0.414-0.138,0.688
		c0,0.14,0.138,0.416,0.415,0.416c0.553,0,1.382-0.969,1.658-1.244l-0.139-0.139c-0.276,0.277-0.69,0.691-0.967,0.691
		c0,0-0.138,0-0.138-0.139c0,0,0-0.139,0.138-0.275l1.243-6.355l-1.796,0.138v0.276c0.415,0,0.691,0,0.691,0.414
		c0,0.139,0,0.275,0,0.414l-0.276,1.658c-0.138-0.275-0.415-0.553-0.967-0.553c-1.381,0-2.487,2.764-2.487,3.869
		c0,0.553,0.138,1.244,0.967,1.244c0.967,0,1.658-1.383,1.796-1.797h0.138L52.089,67.31L52.089,67.31z"/>
	<path d="M56.234,65.099c0.138-0.553,0.553-1.383,1.382-1.383c0.276,0,0.552,0.276,0.552,0.553c0,0.69-0.552,0.83-0.967,0.83H56.234
		L56.234,65.099z M58.307,67.863C58.168,68,57.892,68,57.616,68c-1.244,0-1.52-0.689-1.52-1.521c0-0.414,0-0.827,0.138-1.104h1.105
		c0.829,0,1.658-0.137,1.658-0.967c0-0.691-0.553-1.105-1.243-1.105c-1.935,0-2.625,1.936-2.625,3.316
		c0,1.244,0.691,1.797,1.658,1.797c0.691,0,1.244-0.139,1.52-0.277V67.863L58.307,67.863z"/>
	<path d="M65.767,67.171c-0.276,0.274-0.967,1.243-1.52,1.243c-0.276,0-0.415-0.139-0.415-0.416c0-0.274,0-0.553,0-0.688
		l1.105-5.112c0-0.14,0-0.275,0-0.414c0-0.414-0.276-0.414-0.829-0.414l0.138-0.277l1.658-0.137L64.66,67.31
		c0,0.138,0,0.274,0,0.274c0,0.14,0,0.14,0.138,0.14c0.138,0,0.553-0.414,0.829-0.69L65.767,67.171L65.767,67.171z"/>
	<path d="M67.84,63.44c0.276-0.139,0.691-0.553,0.691-0.967c0-0.276-0.415-0.14-0.415-0.69c0-0.275,0.276-0.554,0.691-0.554
		c0.276,0,0.553,0.277,0.553,0.691c0,0.688-0.829,1.243-1.105,1.52H67.84L67.84,63.44z"/>
	<path d="M71.57,62.197c0-0.14,0-0.275,0-0.414c0-0.414-0.276-0.414-0.829-0.414l0.138-0.277l1.796-0.137l-1.105,5.25l0,0
		c0.415-0.967,1.382-2.902,2.349-2.902c0.415,0,0.691,0.277,0.691,0.691c0,0.139-0.139,0.414-0.139,0.69l-0.553,2.625
		c0,0.138-0.138,0.274-0.138,0.274c0,0.14,0.138,0.14,0.138,0.14c0.276,0,0.691-0.414,0.967-0.69l0.139,0.139
		c-0.277,0.275-1.106,1.244-1.658,1.244c-0.276,0-0.415-0.139-0.415-0.416c0-0.275,0-0.553,0.138-0.689l0.553-2.625
		c0-0.139,0.138-0.277,0.138-0.416c0-0.137-0.138-0.275-0.276-0.275c-0.829,0-2.073,3.179-2.349,4.283h-0.829L71.57,62.197
		L71.57,62.197z"/>
	<path d="M77.235,66.894c0-0.967,0.415-3.178,1.52-3.178c0.553,0,0.691,0.416,0.691,1.104c0,0.969-0.415,3.316-1.52,3.316
		C77.512,68.138,77.235,67.724,77.235,66.894L77.235,66.894z M77.926,68.414c1.658,0,2.487-1.797,2.487-3.178
		c0-1.104-0.415-1.936-1.658-1.936c-1.658,0-2.487,1.936-2.487,3.316C76.268,67.584,76.821,68.414,77.926,68.414L77.926,68.414z"/>
	<path d="M82.486,64.546c0-0.14,0.138-0.277,0.138-0.414l-0.138-0.14c-0.276,0-0.691,0.414-0.967,0.691h-0.138
		c0.276-0.416,1.105-1.383,1.658-1.383c0.276,0,0.415,0.277,0.415,0.553c0,0.139,0,0.414-0.139,0.691l-0.138,0.691l0,0
		c0.276-0.416,0.829-1.937,1.658-1.937c0.276,0,0.415,0.276,0.415,0.553c0,0.277-0.138,0.554-0.415,0.554
		c-0.277,0-0.415-0.14-0.553-0.14c-0.276,0-1.105,1.244-1.658,4.008h-0.83L82.486,64.546L82.486,64.546z"/>
	<path d="M87.874,67.171c-0.276,0.274-0.967,1.243-1.52,1.243c-0.276,0-0.414-0.139-0.414-0.416c0-0.274,0-0.553,0-0.688
		l1.105-5.112c0-0.14,0-0.275,0-0.414c0-0.414-0.276-0.414-0.829-0.414l0.138-0.277l1.658-0.137l-1.243,6.354
		c0,0.138,0,0.274,0,0.274c0,0.14,0,0.14,0.138,0.14c0.138,0,0.553-0.414,0.83-0.69L87.874,67.171L87.874,67.171z"/>
	<path d="M89.946,66.894c0-0.967,0.553-3.178,1.658-3.178c0.414,0,0.689,0.416,0.689,1.104c0,0.969-0.414,3.316-1.52,3.316
		C90.361,68.138,89.946,67.724,89.946,66.894L89.946,66.894z M90.774,68.414c1.521,0,2.488-1.797,2.488-3.178
		c0-1.104-0.554-1.936-1.658-1.936c-1.658,0-2.487,1.936-2.487,3.316C89.118,67.584,89.532,68.414,90.774,68.414L90.774,68.414z"/>
	<path d="M95.335,67.033c0-1.105,0.829-3.316,1.796-3.316c0.14,0,0.554,0.139,0.554,0.691c0,0.967-0.967,3.455-1.935,3.455
		C95.474,67.863,95.335,67.724,95.335,67.033L95.335,67.033z M98.651,63.44h-0.829v0.414c-0.14-0.274-0.415-0.553-0.829-0.553
		c-1.52,0-2.625,2.764-2.625,3.869c0,0.553,0.138,1.243,0.967,1.243c1.105,0,1.658-1.243,1.796-1.797h0.14l-0.416,1.797
		c-0.137,0.554-0.414,1.795-1.242,1.795c-0.69,0-0.553-0.827-1.105-0.827c-0.275,0-0.553,0.274-0.553,0.553
		c0,0.414,0.553,0.554,1.244,0.554c1.796,0,2.21-0.968,2.486-2.072L98.651,63.44L98.651,63.44z"/>
	<path d="M100.862,65.099c0.138-0.553,0.552-1.383,1.381-1.383c0.275,0,0.553,0.276,0.553,0.553c0,0.69-0.553,0.83-0.967,0.83
		H100.862L100.862,65.099z M102.935,67.863C102.795,68,102.519,68,102.243,68c-1.243,0-1.52-0.689-1.52-1.521
		c0-0.414,0-0.827,0.139-1.104h1.104c0.829,0,1.658-0.137,1.658-0.967c0-0.691-0.553-1.105-1.243-1.105
		c-1.935,0-2.625,1.936-2.625,3.316c0,1.244,0.69,1.797,1.657,1.797c0.691,0,1.244-0.139,1.521-0.277V67.863L102.935,67.863z"/>
	<path d="M105.697,64.546c0-0.14,0-0.277,0-0.414c0,0,0-0.14-0.138-0.14c-0.139,0-0.69,0.414-0.969,0.691h-0.138
		c0.415-0.416,1.104-1.383,1.658-1.383c0.276,0,0.413,0.277,0.413,0.553c0,0.139,0,0.414-0.137,0.691l-0.14,0.691l0,0
		c0.276-0.416,0.829-1.937,1.658-1.937c0.276,0,0.553,0.276,0.553,0.553c0,0.277-0.276,0.554-0.553,0.554
		c-0.277,0-0.276-0.14-0.414-0.14c-0.276,0-1.244,1.244-1.797,4.008h-0.828L105.697,64.546L105.697,64.546z"/>
	<path d="M111.226,67.171c-0.276,0.274-1.105,1.243-1.658,1.243c-0.276,0-0.416-0.139-0.416-0.416c0-0.274,0.14-0.553,0.14-0.688
		l0.554-2.764c0-0.14,0-0.277,0-0.414v-0.14c-0.277,0-0.691,0.414-0.969,0.691h-0.138c0.276-0.416,1.104-1.383,1.657-1.383
		c0.139,0,0.414,0.277,0.414,0.553c0,0.139-0.138,0.414-0.138,0.691l-0.553,2.764c0,0.137-0.14,0.275-0.14,0.275
		c0,0.139,0.14,0.139,0.14,0.139c0.276,0,0.69-0.414,0.967-0.691L111.226,67.171L111.226,67.171z M109.979,61.783
		c0-0.275,0.276-0.554,0.691-0.554c0.276,0,0.553,0.277,0.553,0.554c0,0.275-0.275,0.553-0.553,0.553
		C110.257,62.334,109.979,62.058,109.979,61.783L109.979,61.783z"/>
	<path d="M113.573,65.099c0-0.553,0.414-1.383,1.242-1.383c0.416,0,0.691,0.276,0.691,0.553c0,0.69-0.691,0.83-1.104,0.83H113.573
		L113.573,65.099z M115.646,67.863C115.369,68,115.093,68,114.955,68c-1.382,0-1.658-0.689-1.658-1.521
		c0-0.414,0.138-0.827,0.138-1.104h1.105c0.829,0,1.797-0.137,1.797-0.967c0-0.691-0.691-1.105-1.382-1.105
		c-1.935,0-2.625,1.936-2.625,3.316c0,1.244,0.69,1.797,1.796,1.797c0.689,0,1.105-0.139,1.383-0.277L115.646,67.863L115.646,67.863
		z"/>
	<path d="M121.726,67.033c0-0.968,0.69-3.316,1.797-3.316c0.275,0,0.552,0.277,0.552,0.691c0,0.967-0.968,3.455-1.935,3.455
		C122.001,67.863,121.726,67.724,121.726,67.033L121.726,67.033z M123.521,67.31c-0.139,0.138-0.139,0.414-0.139,0.688
		c0,0.14,0.139,0.416,0.415,0.416c0.552,0,1.243-0.969,1.657-1.244l-0.139-0.139c-0.275,0.277-0.828,0.691-0.967,0.691
		c0,0-0.139,0-0.139-0.139c0,0,0-0.139,0.139-0.275l1.244-6.355l-1.797,0.138v0.276c0.414,0,0.689,0,0.689,0.414
		c0,0.139,0,0.275,0,0.414l-0.275,1.658c-0.139-0.275-0.414-0.553-0.967-0.553c-1.383,0-2.487,2.764-2.487,3.869
		c0,0.553,0.14,1.244,0.968,1.244c0.967,0,1.657-1.383,1.797-1.797h0.138L123.521,67.31L123.521,67.31z"/>
	<path d="M127.666,65.099c0.14-0.553,0.554-1.383,1.243-1.383c0.415,0,0.691,0.276,0.691,0.553c0,0.69-0.554,0.83-0.969,0.83
		H127.666L127.666,65.099z M129.738,67.863C129.601,68,129.324,68,129.048,68c-1.242,0-1.52-0.689-1.52-1.521
		c0-0.414,0-0.827,0.138-1.104h1.104c0.83,0,1.658-0.137,1.658-0.967c0-0.691-0.553-1.105-1.244-1.105
		c-1.934,0-2.625,1.936-2.625,3.316c0,1.244,0.691,1.797,1.658,1.797c0.69,0,1.243-0.139,1.521-0.277V67.863L129.738,67.863z"/>
	<path d="M132.642,67.447c0-1.242,0.967-3.593,1.934-3.593c0.275,0,0.415,0.414,0.415,0.83c0,1.242-0.829,3.453-1.798,3.453
		C132.778,68.138,132.642,67.724,132.642,67.447L132.642,67.447z M130.153,70.488h2.763v-0.14c-0.414,0-0.828,0-0.828-0.553
		c0-0.14,0-0.275,0.138-0.414l0.14-1.384h0.138c0.139,0.277,0.276,0.416,0.829,0.416c1.521,0,2.625-2.487,2.625-3.868
		c0-0.83-0.415-1.244-0.967-1.244c-0.968,0-1.798,1.383-1.935,1.657l0,0l0.137-0.413c0-0.277,0-0.554,0-0.691
		c0-0.274-0.137-0.553-0.413-0.553c-0.554,0-1.243,0.967-1.658,1.383h0.276c0.139-0.276,0.69-0.69,0.828-0.69
		c0.14,0,0.14,0.139,0.14,0.139c0,0.137,0,0.275,0,0.414l-0.968,4.836c-0.139,0.691-0.414,0.967-1.243,0.967L130.153,70.488
		L130.153,70.488z"/>
	<path d="M140.377,66.065L140.377,66.065c-0.414,1.244-1.381,2.351-2.21,2.351c-0.415,0-0.691-0.277-0.691-0.83
		c0-0.139,0.14-0.553,0.14-0.828l0.553-2.211c0-0.139,0-0.277,0-0.414v-0.139c-0.276,0-0.69,0.414-0.968,0.69h-0.139
		c0.276-0.416,1.105-1.383,1.658-1.383c0.276,0,0.414,0.276,0.414,0.553c0,0.14-0.138,0.414-0.138,0.691l-0.554,2.485
		c0,0.14-0.139,0.414-0.139,0.414c0,0.139,0.139,0.277,0.276,0.277c0.69,0,2.211-2.35,2.349-4.283h0.83l-0.83,3.869
		c0,0.137,0,0.275,0,0.275c0,0.139,0,0.139,0.139,0.139c0.14,0,0.691-0.414,0.968-0.691l0.14,0.14
		c-0.416,0.274-1.105,1.243-1.658,1.243c-0.276,0-0.416-0.139-0.416-0.416c0-0.274,0-0.553,0.14-0.688L140.377,66.065
		L140.377,66.065z"/>
	<path d="M145.628,67.171c-0.415,0.274-1.105,1.243-1.658,1.243c-0.275,0-0.414-0.139-0.414-0.416c0-0.274,0-0.553,0.139-0.688
		l0.553-2.764c0-0.14,0-0.277,0-0.414c0,0,0-0.14-0.139-0.14s-0.553,0.414-0.828,0.691h-0.139c0.275-0.416,1.104-1.383,1.52-1.383
		c0.275,0,0.415,0.277,0.415,0.553c0,0.139,0,0.414,0,0.691l-0.554,2.764c-0.139,0.137-0.139,0.275-0.139,0.275
		c0,0.139,0.139,0.139,0.139,0.139c0.139,0,0.69-0.414,0.968-0.691L145.628,67.171L145.628,67.171z M144.384,61.783
		c0-0.275,0.276-0.554,0.553-0.554c0.416,0,0.691,0.277,0.691,0.554c0,0.275-0.275,0.553-0.691,0.553
		C144.66,62.334,144.384,62.058,144.384,61.783L144.384,61.783z"/>
	<path d="M149.772,64.685c0-0.553-0.276-0.969-0.967-0.969c-0.414,0-0.83,0.276-0.83,0.83c0,0.967,1.797,0.827,1.797,2.211
		c0,1.241-0.967,1.657-2.211,1.657c-0.553,0-0.967-0.139-1.104-0.139l0.138-1.244h0.276c0,0.414,0.14,1.105,0.968,1.105
		c0.553,0,1.104-0.414,1.104-1.105c0-0.967-1.796-0.967-1.796-2.211c0-0.967,0.828-1.52,1.796-1.52c0.553,0,0.968,0.139,1.243,0.277
		l-0.139,1.104h-0.275V64.685z"/>
	<path d="M153.779,68.138c0.829,0,0.968-0.274,1.243-0.967l0.69-3.455c0-0.275,0-0.552,0-0.828s-0.139-0.414-0.553-0.414
		c-0.138,0-0.276,0-0.414,0v-0.14l1.521-0.413h0.553l-0.969,5.25c-0.138,0.139-0.138,0.274-0.138,0.413
		c0,0.414,0.415,0.554,0.69,0.554v0.14h-2.764L153.779,68.138L153.779,68.138z"/>
	<path d="M159.858,63.716c0-0.552,0.275-1.521,1.244-1.521c0.414,0,0.828,0.277,0.828,0.969c0,0.828-0.414,1.521-1.244,1.521
		C160.136,64.685,159.858,64.408,159.858,63.716L159.858,63.716z M160.136,68.414c1.383,0,2.211-0.83,2.211-2.073
		c0-0.968-0.554-1.242-0.968-1.382l0,0c0.829-0.139,1.521-0.553,1.521-1.795c0-0.969-0.69-1.383-1.658-1.383
		c-1.381,0-2.35,0.691-2.35,1.797c0,0.828,0.416,1.105,0.83,1.381l0,0c-0.83,0-1.521,0.83-1.521,1.935
		S158.892,68.414,160.136,68.414L160.136,68.414z M159.168,67.033c0-0.968,0.415-1.935,1.243-1.935c0.553,0,1.105,0.414,1.105,1.104
		c0,0.968-0.414,1.795-1.383,1.795C159.444,67.998,159.168,67.584,159.168,67.033L159.168,67.033z"/>
	<path d="M167.597,62.334h-1.935c-0.829,0-0.968,0.414-1.104,0.968h-0.276l0.276-1.381h4.006v0.413l-3.729,5.941h-0.967
		L167.597,62.334L167.597,62.334z"/>
	<path d="M170.083,64.685c0.139-0.139,0.415-0.276,1.105-0.276c1.104,0,1.658,0.69,1.658,1.657c0,1.104-0.83,2.351-2.625,2.351
		c-0.969,0-1.658-0.277-1.936-0.277l0.139-0.414c0.139,0,0.69,0.275,1.381,0.275c1.244,0,2.073-0.828,2.073-1.935
		c0-0.827-0.553-1.243-1.104-1.243c-0.691,0-0.969,0.416-1.105,0.553h-0.553l0.829-3.453h3.315l-0.139,0.414h-2.486L170.083,64.685
		L170.083,64.685z"/>
</g>
</svg>
