<?xml version="1.0" standalone="no"?>
<!DOCTYPE svg PUBLIC "-//W3C//DTD SVG 20010904//EN"
 "http://www.w3.org/TR/2001/REC-SVG-20010904/DTD/svg10.dtd">
<svg version="1.0" xmlns="http://www.w3.org/2000/svg"
 width="1280.000000pt" height="720.000000pt" viewBox="0 0 1280.000000 720.000000"
 preserveAspectRatio="xMidYMid meet">
<metadata>
Created by potrace 1.16, written by Peter Selinger 2001-2019
</metadata>
<g transform="translate(0.000000,720.000000) scale(0.100000,-0.100000)"
fill="#000000" stroke="none">
<path d="M5730 5095 c0 -23 3 -25 53 -25 28 0 59 -5 67 -10 13 -8 15 -61 18
-355 2 -226 -1 -352 -8 -364 -8 -16 -23 -21 -68 -23 -53 -3 -57 -5 -57 -28 l0
-25 163 -3 162 -2 0 430 0 430 -165 0 -165 0 0 -25z"/>
<path d="M6200 4699 l0 -419 293 0 c321 0 374 7 451 58 58 38 101 125 92 186
-14 89 -94 159 -202 174 -54 8 -69 28 -27 37 80 17 103 28 136 64 20 23 39 56
43 76 9 50 -19 117 -66 158 -80 68 -178 84 -517 85 l-203 1 0 -420z m481 328
c94 -63 88 -206 -11 -257 -52 -27 -197 -29 -202 -4 -2 9 -2 77 0 150 l3 134
88 0 c75 0 93 -3 122 -23z m51 -384 c51 -30 71 -65 71 -125 1 -112 -57 -158
-210 -166 -66 -3 -97 -1 -108 8 -12 10 -15 40 -15 161 l0 148 48 3 c75 5 181
-9 214 -29z"/>
<path d="M6297 4160 c-41 -48 -36 -60 23 -60 36 0 52 4 56 15 5 12 30 15 135
15 l129 0 0 -25 c0 -26 1 -26 -92 -27 -33 0 -38 -4 -38 -24 0 -23 3 -24 66
-24 l65 0 -3 -32 -3 -33 -122 -3 c-114 -2 -123 -1 -133 18 -8 15 -21 20 -56
20 -55 0 -65 -17 -34 -60 l21 -30 208 0 c197 0 209 1 226 20 12 14 18 33 17
55 -5 61 -4 99 3 130 5 24 2 35 -15 50 -20 18 -40 20 -224 23 l-202 4 -27 -32z"/>
<path d="M5440 4163 c1 -29 25 -53 54 -53 l26 0 0 -100 0 -100 65 0 65 0 0
115 c0 148 -6 155 -127 155 -72 0 -83 -2 -83 -17z"/>
<path d="M5730 4145 l0 -35 140 0 c77 0 140 -4 140 -9 0 -5 -36 -42 -80 -82
-45 -40 -80 -80 -80 -91 0 -16 9 -18 73 -18 39 0 77 4 82 8 6 4 49 48 98 98
77 81 87 96 87 128 l0 36 -230 0 -230 0 0 -35z"/>
<path d="M6870 4110 l0 -70 179 0 c166 0 180 -1 186 -19 3 -10 3 -26 -1 -35
-5 -14 -28 -16 -185 -16 -146 0 -179 -3 -179 -14 0 -7 11 -21 25 -30 33 -22
338 -23 390 -2 63 27 76 97 24 140 -30 25 -34 26 -180 26 l-149 0 0 30 0 30
180 0 c153 0 180 2 180 15 0 13 -33 15 -235 15 l-235 0 0 -70z"/>
<path d="M10570 3675 l0 -35 50 0 c28 0 66 -6 84 -14 68 -28 66 -11 66 -519 0
-408 -2 -463 -17 -494 -20 -44 -63 -63 -138 -63 l-55 0 0 -35 0 -35 290 0 290
0 0 35 0 35 -78 0 c-86 0 -112 11 -131 57 -8 20 -11 140 -9 413 l3 386 525
-463 c460 -405 529 -462 558 -463 l32 0 0 566 c0 350 4 572 10 584 13 24 62
40 121 40 42 0 49 3 49 20 0 19 -7 20 -265 20 -252 0 -265 -1 -265 -19 0 -16
10 -19 72 -23 62 -5 75 -9 95 -32 23 -27 23 -30 23 -302 0 -151 -3 -274 -6
-274 -3 0 -65 51 -137 113 -192 164 -524 446 -583 495 l-50 42 -267 0 -267 0
0 -35z"/>
<path d="M560 3651 l0 -31 69 0 c53 0 74 -4 92 -19 l24 -19 3 -484 c3 -477 2
-485 -18 -511 -18 -23 -29 -26 -93 -29 l-72 -3 -3 -37 -3 -38 508 0 c293 0
535 4 573 10 90 14 199 69 249 126 94 108 96 252 3 356 -63 69 -169 118 -259
118 -34 0 -52 15 -36 31 5 5 35 14 65 19 74 12 128 40 170 90 110 127 57 300
-117 388 -108 54 -124 55 -657 59 l-498 4 0 -30z m831 -71 c170 -47 211 -276
68 -379 -50 -37 -115 -51 -229 -51 l-90 0 0 220 0 220 108 0 c59 0 123 -5 143
-10z m91 -559 c112 -43 166 -146 139 -266 -16 -70 -58 -115 -138 -146 -49 -19
-78 -23 -184 -23 -93 -1 -130 3 -142 13 -15 12 -17 41 -17 234 l0 220 143 -5
c112 -5 154 -10 199 -27z"/>
<path d="M7092 3440 c-39 -36 -61 -37 -179 -8 -71 18 -117 22 -243 22 -142 0
-162 -2 -236 -27 -268 -90 -421 -332 -359 -572 45 -171 178 -296 368 -344 198
-51 441 -29 644 57 l63 27 0 72 0 72 -61 -41 c-183 -121 -378 -162 -501 -106
-75 35 -122 79 -157 149 -40 81 -55 157 -48 255 17 237 163 376 378 361 128
-9 239 -71 310 -176 27 -40 40 -51 62 -51 l27 0 -1 83 c-2 129 -13 250 -24
253 -5 2 -25 -10 -43 -26z"/>
<path d="M3817 3443 c-4 -4 -103 -201 -220 -438 -222 -449 -239 -475 -298
-475 -24 0 -29 -4 -29 -25 l0 -25 213 2 c208 3 212 3 215 24 3 20 -3 22 -59
26 -49 4 -66 9 -80 27 -28 34 -23 68 19 141 l38 65 190 3 189 2 53 -81 c55
-87 60 -104 39 -133 -12 -17 -51 -24 -134 -26 -18 0 -23 -6 -23 -25 l0 -25
306 0 305 0 -3 27 c-2 21 -9 27 -33 30 -16 2 -39 14 -51 26 -11 12 -135 202
-274 422 -303 479 -293 465 -329 465 -15 0 -31 -3 -34 -7z m52 -461 c39 -63
71 -116 71 -118 0 -2 -61 -4 -135 -4 -74 0 -135 3 -135 7 0 18 114 242 120
236 4 -5 39 -59 79 -121z"/>
<path d="M9001 3436 c-6 -7 -104 -202 -217 -432 -113 -230 -215 -429 -227
-442 -11 -12 -38 -25 -59 -28 -32 -6 -38 -11 -38 -30 l0 -24 210 0 210 0 0 25
c0 22 -4 25 -39 25 -58 0 -89 15 -107 54 l-17 34 45 73 44 74 190 2 189 3 49
-78 c49 -77 60 -122 37 -145 -6 -6 -43 -13 -81 -15 -66 -4 -70 -6 -70 -28 l0
-24 305 0 305 0 0 24 c0 20 -6 24 -39 30 -39 6 -40 6 -257 348 -374 589 -359
568 -393 568 -15 0 -34 -6 -40 -14z m81 -498 l48 -78 -135 0 c-76 0 -135 4
-135 9 0 5 26 62 57 126 l56 116 30 -48 c17 -26 52 -83 79 -125z"/>
<path d="M2140 3410 l0 -30 64 0 c49 0 69 -5 90 -21 l26 -20 0 -375 c0 -234
-4 -382 -10 -394 -12 -22 -68 -40 -127 -40 -39 0 -43 -2 -43 -25 l0 -25 512 2
513 3 27 170 c27 174 27 185 -12 185 -9 0 -31 -32 -53 -74 -43 -83 -94 -142
-143 -162 -51 -21 -337 -20 -358 2 -14 13 -16 61 -16 372 0 307 2 361 16 380
14 20 24 22 100 22 l84 0 0 30 0 30 -335 0 -335 0 0 -30z"/>
<path d="M4600 3416 c0 -21 5 -24 55 -28 101 -8 95 17 95 -423 l0 -382 -25
-23 c-18 -17 -40 -25 -80 -28 -50 -4 -55 -7 -55 -28 l0 -24 228 2 c219 3 227
4 227 23 0 17 -8 21 -62 25 -47 4 -68 11 -85 28 -23 22 -23 25 -26 333 -2 208
0 310 7 308 12 -5 180 -150 549 -476 196 -175 280 -243 298 -243 l24 0 0 445
c0 432 1 446 20 465 15 15 33 20 70 20 38 0 50 4 50 15 0 13 -29 15 -205 15
-176 0 -205 -2 -205 -15 0 -11 12 -15 49 -15 37 0 56 -6 76 -22 l26 -23 -3
-217 -3 -216 -300 254 -300 254 -212 0 -213 0 0 -24z"/>
<path d="M9820 3415 c0 -24 3 -25 56 -25 123 0 124 -2 124 -445 l0 -356 -25
-24 c-21 -22 -33 -25 -90 -25 l-65 0 0 -30 0 -30 326 0 325 0 -3 28 c-3 26 -5
27 -76 30 -109 4 -103 -22 -100 426 3 373 3 376 25 398 18 17 37 23 88 26 61
4 65 6 65 28 l0 24 -325 0 -325 0 0 -25z"/>
<path d="M7390 3391 l0 -31 65 0 c57 0 69 -3 90 -25 l25 -24 0 -365 0 -365
-24 -27 c-20 -24 -32 -28 -90 -32 -56 -4 -66 -7 -66 -23 0 -18 13 -19 325 -19
318 0 325 0 325 20 0 17 -7 20 -40 20 -49 0 -117 26 -130 51 -6 10 -10 87 -10
171 l0 153 178 1 c166 0 182 2 256 27 100 35 158 76 193 135 56 94 27 243 -57
298 -85 56 -98 58 -587 62 l-453 3 0 -30z m694 -62 c84 -21 131 -89 124 -181
-5 -62 -23 -96 -72 -132 -24 -18 -45 -21 -152 -24 l-124 -4 0 176 0 176 91 0
c49 0 109 -5 133 -11z"/>
</g>
</svg>
