<?xml version="1.0" encoding="utf-8"?>
<!-- Generator: Adobe Illustrator 16.0.0, SVG Export Plug-In . SVG Version: 6.00 Build 0)  -->
<!DOCTYPE svg PUBLIC "-//W3C//DTD SVG 1.1//EN" "http://www.w3.org/Graphics/SVG/1.1/DTD/svg11.dtd">
<svg version="1.1" id="Calque_1" xmlns="http://www.w3.org/2000/svg" xmlns:xlink="http://www.w3.org/1999/xlink" x="0px" y="0px"
	 width="175.75px" height="109.88px" viewBox="0 0 175.75 109.88" enable-background="new 0 0 175.75 109.88" xml:space="preserve">
<path fill-rule="evenodd" clip-rule="evenodd" fill="#231F20" d="M48.054,70.191C37.66,85.984,24.702,90.439,15.523,90.439
	C6.749,90.439,0,86.658,0,80.045c0-7.963,10.528-15.523,19.707-15.523c4.32,0,8.099,2.699,8.099,6.615
	c0,3.643-3.374,9.312-12.148,9.312c-3.375,0-5.939-1.078-5.939-1.078s2.834,0.539,5.264,0.539c7.424,0,10.798-4.455,10.798-8.504
	c0-5.67-5.399-6.209-6.479-6.209c-8.908,0-16.603,7.02-16.603,14.713c0,6.885,7.289,9.988,12.824,9.988
	c5.399,0,16.198-1.215,27.536-17.816c7.02-10.125,16.333-20.519,30.236-23.758C61.552,52.778,57.908,55.073,48.054,70.191"/>
<path fill-rule="evenodd" clip-rule="evenodd" fill="#231F20" d="M38.74,83.014c3.914,0.135,9.719-4.184,9.719-7.963
	c0-2.43-2.16-2.969-3.105-2.969c-7.289,0-12.418,7.424-12.418,11.473c0,4.59,4.319,5.938,6.479,5.938
	c7.559,0,17.548-8.906,17.548-15.926c0-3.916-2.025-4.051-3.51-4.051c-1.08,0-1.62,0.27-1.62,0.676c0,0.539,0.81,0.811,1.215,0.811
	c4.995,0,13.903-7.695,13.903-14.309c0-4.725-4.319-4.86-5.534-4.86c-7.829,0-12.688,6.345-17.413,12.823
	c-4.589,6.346-13.228,14.715-23.352,17.143C31.046,78.02,37.93,70.326,42.789,63.576c4.725-6.344,12.284-12.958,20.248-12.958
	c2.429,0,6.749,1.35,6.749,5.94c0,6.613-11.339,14.982-16.333,14.982c-2.16,0-2.43-0.811-2.43-1.35c0-0.945,2.025-1.756,3.645-1.756
	c2.295,0,5.534,1.35,5.534,5.131c0,6.074-9.988,16.602-21.327,16.602c-4.05,0-7.559-2.564-7.559-6.074
	c0-5.129,6.884-12.688,14.713-12.688c2.565,0,4.05,1.889,4.05,3.238C50.079,77.885,45.084,83.42,38.74,83.014"/>
<path fill-rule="evenodd" clip-rule="evenodd" fill="#231F20" d="M89.627,96.918c-4.183,5.939-9.447,11.338-12.687,11.338
	c-0.81,0-1.485-0.27-1.485-1.215c0-4.184,8.234-9.854,17.008-14.848c0.27-0.135,0.404-0.135,0.676-0.27L89.627,96.918
	 M91.248,88.279c-0.945,0-1.754-0.135-1.754-2.16c0-4.184,4.859-9.449,8.502-9.449c2.432,0,2.701,1.621,2.701,2.43
	C100.697,83.959,94.082,88.279,91.248,88.279z M83.419,76.805c1.485,0,1.485,1.215,1.485,1.486c0,3.104-5.399,5.533-8.099,5.668
	C77.885,79.775,81.664,76.805,83.419,76.805z M136.062,76.805c1.484,0,1.35,0.811,1.35,1.215c0,2.566-4.994,5.805-9.178,5.939
	C129.312,79.91,133.768,76.805,136.062,76.805z M142.271,80.18c-0.135,0-0.27,0.135-0.404,0.27c-4.59,4.59-8.91,7.965-11.475,7.965
	c-1.754,0-2.43-0.539-2.43-2.699c0-0.406,0-0.811,0.137-1.215c4.857-0.137,11.742-3.375,11.742-6.885
	c0-0.676-0.404-1.756-2.295-1.756c-2.969,0-7.559,2.971-10.393,6.076c-4.59,5.264-8.1,6.613-8.91,6.613
	c-0.809,0-1.889-0.539,0.271-3.51l6.613-8.908h-3.238l-3.24,4.318c-4.32,5.805-7.695,8.234-9.449,8.234
	c-0.945,0-2.025-0.674,0.135-3.645l6.748-8.908h-3.373c-3.645,4.859-5.535,6.883-14.309,12.014l8.908-12.014h-3.238l-1.35,2.023
	c-0.271-1.889-1.486-2.43-3.375-2.43c-3.24,0-7.289,2.566-9.854,5.4c-4.05,4.318-8.504,7.559-10.934,7.559
	c-1.485,0-2.16-0.404-2.16-2.295c0-0.674,0.135-1.35,0.27-1.889c5.129,0,10.799-4.455,10.799-6.885c0-0.676-0.405-1.619-2.295-1.619
	c-3.375,0-8.774,3.779-10.933,7.424c-2.43-1.215-1.485-4.59,2.699-7.289h-3.914l-8.504,9.043c2.429-3.375,4.454-6.344,4.454-7.424
	c0-0.811-0.54-1.754-1.89-1.754c-1.62,0-7.019,3.51-9.583,6.613c4.724-4.184,8.503-5.805,8.909-5.805
	c0.809,0,0.539,0.811,0.134,1.35l-8.503,11.338h3.374l9.989-10.527c-0.405,2.025,0.54,4.049,2.564,4.994
	c-0.539,0.811-0.809,1.756-0.809,2.564c0,2.025,1.889,3.24,3.914,3.24c2.565,0,6.209-2.16,9.719-5.129
	c-0.405,0.809-0.54,1.619-0.54,2.16c0,1.215,0.945,2.969,3.105,2.969c2.158,0,4.994-1.35,7.424-3.24l-2.836,4.186
	c-0.539,0.27-1.08,0.674-1.754,0.943c-10.124,5.67-18.087,10.664-18.087,14.713c0,1.352,0.809,2.295,2.564,2.295
	c4.454,0,11.339-6.479,18.898-16.736l1.889-2.432c5.129-2.834,8.234-4.857,11.068-7.693l-1.215,1.621
	c-3.373,4.59,0,5.939,1.484,5.939c1.891,0,4.186-1.621,6.346-3.645c-0.674,2.295,0.674,3.645,2.43,3.645
	c2.025,0,5.129-2.16,7.693-4.455c-0.27,0.539-0.404,1.08-0.404,1.619c0,2.295,1.484,3.375,3.375,3.375
	c1.754,0,4.588-1.215,7.289-3.104c1.484-1.08,3.104-2.295,4.723-3.781l-4.453,6.479h2.969l20.652-29.83
	C158.199,60.877,150.506,71.811,142.271,80.18z"/>
<path fill-rule="evenodd" clip-rule="evenodd" fill="#231F20" d="M157.66,72.217h-30.912l1.215-1.756
	c0.676,0.676,1.08,0.811,3.375,0.811c2.16,0.135,26.322,0.811,26.322,0.811C157.93,72.082,157.93,72.217,157.66,72.217"/>
<path fill-rule="evenodd" clip-rule="evenodd" fill="#231F20" d="M167.918,76.939c-1.08,0.811-4.049,5.535-9.719,5.535
	c-1.889,0-3.24-1.08-3.24-2.969c0-4.727,7.021-8.369,12.15-8.369c2.43,0,6.748,0.404,6.748,5.938c0,7.289-6.883,12.15-13.768,12.15
	c-4.725,0-7.559-1.891-13.094-1.891c-6.75,0-9.18,3.238-9.988,5.264c0.404-0.945,2.834-4.049,9.043-4.049
	c4.32,0,7.965,2.023,12.42,2.023c7.289,0,17.277-6.613,17.277-13.633c0-3.645-2.16-6.613-7.559-6.613
	c-6.615,0-14.713,4.994-14.713,9.854c0,1.215,1.078,3.24,4.453,3.24C163.059,83.42,167.109,78.02,167.918,76.939"/>
<path fill-rule="evenodd" clip-rule="evenodd" fill="#231F20" d="M105.557,99.617h-0.539c-0.271,0-0.406,0.135-0.406,0.27v5.939
	c0,0.406,0.135,0.811,0.541,0.811h0.674c1.484,0,2.969-1.215,2.969-3.51C108.795,102.316,108.391,99.617,105.557,99.617
	 M102.857,100.697c0-1.484-0.676-1.215-0.676-1.35h4.455c3.51,0,4.049,2.969,4.049,3.914c0,2.295-2.295,3.645-4.049,3.645h-4.455
	c0,0,0.676,0.135,0.676-1.35V100.697z"/>
<path fill-rule="evenodd" clip-rule="evenodd" fill="#231F20" d="M119.189,105.961c0.135,0.404,0.406,0.676,0.945,0.676
	c0.945,0,1.619-0.811,1.619-2.295s-0.809-2.295-1.484-2.295c-0.404,0-0.811,0.27-1.08,0.541V105.961 M119.189,102.182
	c0.406-0.404,1.08-0.674,1.891-0.674c1.078,0,2.564,0.943,2.564,2.699c0,1.754-1.486,2.834-2.969,2.834
	c-0.541,0-1.08-0.135-1.486-0.539v2.295c0,1.215,0.406,1.08,0.541,1.08h-2.701c0,0,0.541,0.135,0.541-1.08v-5.805
	c0-0.945-0.541-0.945-0.676-0.945l2.295-0.539V102.182z"/>
<path fill-rule="evenodd" clip-rule="evenodd" fill="#231F20" d="M132.688,105.691c0,1.35,0.541,1.08,0.541,1.215h-2.701
	c0.135-0.135,0.541,0.135,0.541-1.215v-2.834c0-0.945-0.406-0.945-0.541-0.945l2.16-0.539V105.691"/>
<path fill-rule="evenodd" clip-rule="evenodd" fill="#231F20" d="M131.742,100.021c0.406,0,0.811-0.27,0.811-0.539
	s-0.404-0.541-0.811-0.541c-0.404,0-0.809,0.271-0.809,0.541S131.338,100.021,131.742,100.021"/>
<path fill-rule="evenodd" clip-rule="evenodd" fill="#231F20" d="M129.584,106.098c0,0.539,0.404,0.539,0.539,0.539l-2.023,0.27
	v-0.674c-0.406,0.539-1.215,0.809-1.891,0.809c-2.025,0-1.891-1.484-1.891-2.293v-2.025c0-1.215-0.404-1.08-0.539-1.08h2.16v3.645
	c0,1.215,0.674,1.35,0.809,1.35c0.271,0,1.08-0.135,1.352-0.811v-2.969c0-1.35-0.541-1.215-0.541-1.215h2.025V106.098"/>
<path fill-rule="evenodd" clip-rule="evenodd" fill="#231F20" d="M114.195,101.777c-0.945,0-1.215,0.945-1.35,1.619h2.699
	C115.545,102.451,114.869,101.777,114.195,101.777 M116.895,103.668h-4.184c0,0.135,0,0.27,0,0.27c0,1.889,1.08,2.564,2.023,2.564
	c0.676,0,1.35-0.404,1.756-0.811c-0.406,0.945-1.35,1.619-2.564,1.619c-1.891,0-2.971-1.619-2.971-2.834
	c0-2.025,2.16-3.104,3.24-3.104C115.141,101.373,116.76,101.912,116.895,103.668z"/>
<path fill-rule="evenodd" clip-rule="evenodd" fill="#231F20" d="M138.223,105.557c0,0.945-0.945,1.754-2.43,1.754
	c-0.811,0-1.35-0.135-1.891-0.539v-0.945c0.27,0.676,0.945,1.215,1.756,1.215c0.674,0,1.215-0.404,1.215-0.943
	c0-0.541-0.676-0.811-1.484-1.215c-0.676-0.271-1.756-0.541-1.756-1.756c0-0.945,0.945-1.619,2.43-1.619
	c0.406,0,0.945,0,1.754,0.404v0.945c-0.809-1.08-1.619-1.08-1.889-1.08c-0.539,0-0.945,0.404-0.945,0.811
	c0,0.539,0.406,0.809,1.486,1.215C136.738,103.938,138.223,104.342,138.223,105.557"/>
<path fill-rule="evenodd" clip-rule="evenodd" fill="#231F20" d="M143.217,107.176c0.135-0.135,0.404-0.135,0.404-1.078v-5.67
	c0-1.08-0.404-1.08-0.539-1.215l2.16-0.541v7.426c0,0.943,0.404,0.943,0.539,1.078H143.217"/>
<path fill-rule="evenodd" clip-rule="evenodd" fill="#231F20" d="M154.42,107.041c0.811-1.889,3.105-5.939,4.59-8.1h-4.859
	c-0.135,0-0.404,0-0.674-0.27l-0.811,1.891c0.27-0.27,0.674-0.406,1.08-0.406h3.508c-0.27,0.406-1.35,2.432-2.564,4.32
	c-0.811,1.35-1.213,2.16-1.484,2.564H154.42"/>
<path fill-rule="evenodd" clip-rule="evenodd" fill="#231F20" d="M148.211,107.041c0.945-1.889,3.105-5.939,4.59-8.1h-4.725
	c-0.27,0-0.541,0-0.811-0.27l-0.674,1.891c0.27-0.27,0.541-0.406,0.943-0.406h3.51c-0.27,0.406-1.35,2.432-2.43,4.32
	c-0.945,1.35-1.35,2.16-1.619,2.564H148.211"/>
<path fill-rule="evenodd" clip-rule="evenodd" fill="#231F20" d="M160.225,106.906c1.08,0,2.025-0.945,2.025-2.564
	c0-1.08-0.676-2.43-1.891-2.43c-0.674,0-1.35,0.404-1.754,0.945l0.674-3.916h3.24c0.135,0,0.539,0,0.943-0.27l-0.809,1.484h-3.104
	l-0.406,1.891c0.541-0.404,1.35-0.674,2.023-0.674c1.756,0,2.836,1.484,2.836,2.699c0,1.889-1.754,3.104-3.645,3.104
	c-0.27,0-1.215,0-2.16-0.404l-0.135-1.08C159.01,106.906,159.82,106.906,160.225,106.906"/>
<path fill-rule="evenodd" clip-rule="evenodd" fill="#231F20" d="M135.793,15.658c-1.215,0.27-2.43-0.675-2.699-2.16
	c-0.271-1.485,0.539-2.835,1.754-3.104c1.215-0.271,2.43,0.674,2.699,2.159S137.008,15.388,135.793,15.658 M99.482,53.588
	c-1.486,0.27-2.834-0.81-3.105-2.43c-0.27-1.619,0.676-3.104,2.025-3.374c1.35-0.405,2.699,0.675,3.105,2.295
	C101.777,51.698,100.832,53.318,99.482,53.588z M68.166,30.101c-1.485,0.27-2.969-0.945-3.239-2.7
	c-0.27-1.889,0.675-3.509,2.159-3.914c1.485-0.27,2.97,0.945,3.24,2.699C70.731,28.076,69.651,29.696,68.166,30.101z M147.535,0
	l-1.215,0.54l-9.717,9.314c-0.811-0.54-1.621-0.675-2.566-0.54c-1.889,0.405-3.238,2.564-2.834,4.859
	c0.135,0.54,0.404,1.08,0.674,1.485l-29.965,30.236c-1.484-1.62-3.645-2.43-5.67-2.025c-1.35,0.27-2.43,1.08-3.24,2.025
	L72.216,29.696c0.405-0.945,0.675-2.16,0.405-3.375c-0.405-2.834-2.835-4.724-5.265-4.184c-0.675,0.135-1.215,0.405-1.754,0.81
	l-9.179-6.479l-1.08-0.135l0.405,1.215l8.099,8.099c-0.135,0.809-0.27,1.619,0,2.564c0.405,2.835,2.834,4.725,5.264,4.185
	c0.81-0.27,1.485-0.54,2.025-1.08c0.27-0.405,0.405-0.405,0.54-0.27c0,0,7.694,6.749,10.394,9.044
	c2.699,2.295,7.018,5.669,7.829,6.344c0.809,0.81,1.889,1.62,1.889,1.62c-0.404,1.214-0.539,2.7-0.27,4.049
	c0.811,3.915,4.186,6.344,7.559,5.668c3.375-0.674,5.535-4.318,4.727-8.232c-0.137-0.675-0.406-1.35-0.811-2.025l29.561-30.911
	c0.811,0.675,1.891,1.08,2.971,0.81c2.023-0.405,3.373-2.565,2.834-4.725c0-0.405-0.135-0.675-0.27-0.945l9.045-10.528L147.535,0z"
	/>
<path fill-rule="evenodd" clip-rule="evenodd" fill="#231F20" d="M99.211,52.643c0.945-0.135,1.486-1.215,1.352-2.295
	c-0.271-1.08-1.08-1.754-2.025-1.619c-0.943,0.135-1.484,1.214-1.35,2.294C97.457,52.103,98.268,52.913,99.211,52.643"/>
</svg>
