<?xml version="1.0" encoding="utf-8"?>
<!-- Generator: Adobe Illustrator 16.0.0, SVG Export Plug-In . SVG Version: 6.00 Build 0)  -->
<!DOCTYPE svg PUBLIC "-//W3C//DTD SVG 1.1//EN" "http://www.w3.org/Graphics/SVG/1.1/DTD/svg11.dtd">
<svg version="1.1" id="Calque_1" xmlns="http://www.w3.org/2000/svg" xmlns:xlink="http://www.w3.org/1999/xlink" x="0px" y="0px"
	 width="317px" height="78px" viewBox="0 0 317 78" enable-background="new 0 0 317 78" xml:space="preserve">
<g>
	<path fill="#020202" d="M290.242,63.2h-0.669c-0.224,0-1.562,0-2.454-1.783c-2.23-3.793-3.346-4.908-3.791-5.354
		c-0.446-0.447,0-0.447,0-0.447c4.906-1.115,4.684-4.461,4.684-4.461c0-4.238-5.354-4.238-5.354-4.238h-12.49
		c-0.224,0-0.446,0.225-0.446,0.447v0.668c0,0.225,0.223,0.447,0.446,0.447l1.115,0.223c0.445,0,0.892,0.447,0.892,0.893v12.49
		c0,0.447-0.446,0.893-0.892,1.115l-1.115,0.225c-0.224,0-0.446,0.223-0.446,0.445v0.67c0,0.223,0.223,0.223,0.446,0.223h8.252
		c0.224,0,0.447-0.223,0.447-0.223v-0.67c0-0.223-0.224-0.445-0.447-0.445l-1.115-0.225c-0.445,0-0.892-0.445-0.892-1.115v-5.129
		c0-0.447,0.224-0.67,0.669-0.67h1.115c0,0,1.785,0,3.123,2.23c0,0,0.893,1.785,2.008,3.793c1.115,2.006,1.784,2.453,4.906,2.453
		h2.008c0.223,0,0.223-0.223,0.223-0.223v-0.893C290.688,63.425,290.465,63.2,290.242,63.2z M280.428,54.726h-3.346
		c-0.445,0-0.669-0.225-0.669-0.67v-5.131c0-0.445,0.224-0.668,0.669-0.668h3.346c0,0,3.346,0,3.346,3.123
		C283.997,54.726,280.428,54.726,280.428,54.726z"/>
	<path fill="#020202" d="M261.469,48.925c0-0.445,0.223-0.668,0.669-0.668h2.007c0,0,1.339,0.223,2.23,1.338l0.67,0.893
		c0,0.223,0.223,0.223,0.445,0.223h0.893c0.224,0,0.446-0.223,0.446-0.223s0,0,0-0.223l-1.115-2.678
		c-0.224-0.445-0.669-0.67-1.115-0.67h-14.052c-0.447,0-0.893,0.225-1.115,0.67l-1.115,2.678c0,0,0,0,0,0.223
		s0.223,0.223,0.445,0.223h0.893c0.223,0,0.223-0.223,0.445-0.223l0.67-0.893c0.893-1.115,2.23-1.338,2.23-1.338h2.008
		c0.445,0,0.668,0.223,0.668,0.668v12.938c0,0.447-0.445,0.893-0.892,1.115l-1.115,0.223c-0.224,0-0.446,0.225-0.446,0.447v0.668
		c0,0.225,0.223,0.447,0.446,0.447h8.253c0.223,0,0.446-0.223,0.446-0.447v-0.668c0-0.223-0.224-0.447-0.446-0.447l-1.115-0.223
		c-0.445,0-0.893-0.445-0.893-1.115V48.925H261.469z"/>
	<path fill="#020202" d="M244.517,49.595c0-0.445,0.446-0.893,0.892-1.115l1.115-0.223c0.224,0,0.446-0.225,0.446-0.447v-0.668
		c0-0.225-0.223-0.447-0.446-0.447h-8.252c-0.224,0-0.224,0.223-0.224,0.447v0.668c0,0.223,0.224,0.447,0.446,0.447l1.115,0.223
		c0.445,0,0.893,0.445,0.893,1.115v12.49c0,0.447-0.447,0.893-0.893,1.115l-1.115,0.225c-0.223,0-0.446,0.223-0.446,0.445v0.67
		c0,0.223,0.224,0.223,0.224,0.223h12.49c0.446,0,0.893-0.223,1.115-0.67l1.115-2.676c0,0,0,0,0-0.225
		c0-0.223-0.223-0.223-0.445-0.223h-0.67c-0.223,0-0.223,0.223-0.445,0.223l-0.67,0.893c-0.893,1.115-2.23,1.115-2.23,1.115h-3.346
		c-0.446,0-0.669-0.223-0.669-0.668V49.595z"/>
	<path fill="#020202" d="M223.772,57.401c0,0-0.446,5.576,4.461,5.576c4.461,0,4.461-4.906,4.461-4.906v-8.477
		c0-0.445-0.223-0.893-0.669-1.115l-0.893-0.223c-0.223,0-0.445-0.225-0.445-0.447v-0.668c0-0.225,0.223-0.447,0.445-0.447h5.131
		c0.223,0,0.445,0.223,0.445,0.447v0.668c0,0.223-0.223,0.447-0.445,0.447l-0.893,0.223c-0.445,0-0.669,0.445-0.669,1.115v7.807
		c0,0.893,0,7.139-6.915,7.139c-8.253,0-7.807-7.139-7.807-7.139v-8.029c0-0.447-0.446-0.893-0.893-1.115l-1.115-0.225
		c-0.223,0-0.445-0.223-0.445-0.445v-0.445c0-0.225,0.223-0.447,0.445-0.447h7.807c0.224,0,0.447,0.223,0.447,0.447v0.891
		c0,0.225-0.224,0.447-0.447,0.447l-0.892,0.223c-0.446,0-0.669,0.447-0.669,1.115v7.584H223.772z"/>
	<path fill="#020202" d="M210.389,47.587c-1.115-0.67-2.453-0.893-4.015-0.893c-4.907,0-9.146,4.016-9.146,9.146
		c0,5.129,4.016,9.145,9.146,9.145c4.907,0,9.146-4.016,9.146-9.145C215.52,52.048,213.512,48.925,210.389,47.587z M206.598,63.2
		c-3.123,0-4.461-2.898-4.461-7.584c-0.224-4.906,0.892-7.807,4.014-7.807c3.123,0,4.462,2.678,4.462,7.584
		C211.059,60.302,209.943,63.2,206.598,63.2z"/>
	<path fill="#020202" d="M193.438,58.739c-3.123,4.461-7.584,4.238-7.584,4.238c-4.908,0.223-6.691-4.906-6.915-11.152
		s1.339-11.375,6.022-11.6c0,0,4.684-0.668,7.584,4.016c0,0.223,0.223,0.223,0.445,0.223h0.224l1.115-0.223
		c0.224,0,0.224-0.223,0.224-0.223s0,0,0-0.223l-1.562-4.908c0-0.223-0.223-0.223-0.445-0.223h-0.67
		c-0.223,0-0.445,0.223-0.445,0.223c-0.223,1.562-1.562,0.669-1.562,0.669c-1.562-0.893-3.346-1.338-5.13-1.338
		c-6.691,0-12.045,6.022-12.045,13.161c0,7.359,5.354,13.16,12.045,13.16c2.008,0,4.015-0.447,5.576-1.562
		c0,0,1.338-0.893,1.561,0.67c0,0.223,0.224,0.223,0.447,0.223h0.668c0.224,0,0.447-0.223,0.447-0.223l1.561-4.908c0,0,0,0,0-0.223
		s0-0.223-0.223-0.223h-0.893h-0.223C193.438,58.294,193.438,58.517,193.438,58.739z"/>
	<path fill="#020202" d="M159.756,46.694h8.922c0.446,0,0.893,0.447,1.115,0.67l0.893,2.453c0,0,0,0,0,0.223
		c0,0.225-0.223,0.225-0.223,0.225h-0.893c-0.223,0-0.223-0.225-0.446-0.225l-0.446-0.668c-0.893-1.34-2.008-1.115-2.008-1.115
		h-4.684c-0.445,0-0.669,0.223-0.669,0.668v2.9c0,0.445,0.224,0.67,0.669,0.67h1.115c0.67,0,1.115-0.225,1.338-0.67l0.224-0.67
		c0-0.223,0.224-0.223,0.446-0.223h0.669c0.224,0,0.446,0.223,0.446,0.223l1.561,4.686c0,0,0,0,0,0.223s0,0.223-0.223,0.223
		l-0.669,0.223h-0.224c-0.223,0-0.223-0.223-0.445-0.223l-0.446-0.893c0,0-0.446-0.893-1.562-0.893h-2.008
		c-0.445,0-0.668,0.225-0.668,0.67v7.584c0,0.445,0.223,0.67,0.668,0.67h5.131c0,0,1.338,0,2.23-1.115l0.669-0.893
		c0-0.225,0.224-0.225,0.446-0.225h0.893c0.223,0,0.223,0.225,0.223,0.225s0,0,0,0.223l-1.115,2.676
		c-0.223,0.447-0.669,0.67-1.115,0.67h-14.052c-0.223,0-0.446-0.223-0.446-0.223v-0.67c0-0.223,0.223-0.445,0.446-0.445l1.115-0.223
		c0.446,0,0.892-0.447,0.892-1.115V49.817c0-0.445-0.446-0.893-0.892-1.115l-1.115-0.223c-0.223,0-0.446-0.223-0.446-0.447v-0.891
		c0-0.225,0.223-0.447,0.446-0.447H159.756z"/>
	<path fill="#020202" d="M145.48,49.595c0-0.445,0.446-0.893,0.892-1.115l1.115-0.223c0.223,0,0.446-0.225,0.446-0.447v-0.668
		c0-0.225-0.223-0.447-0.446-0.447h-8.253c-0.223,0-0.223,0.223-0.223,0.447v0.668c0,0.223,0.223,0.447,0.446,0.447l1.115,0.223
		c0.446,0,0.892,0.445,0.892,1.115v12.49c0,0.447-0.446,0.893-0.892,1.115l-1.115,0.225c-0.223,0-0.446,0.223-0.446,0.445v0.893
		c0,0.223,0.223,0.223,0.223,0.223h12.491c0.446,0,0.892-0.223,1.115-0.67l1.115-2.676c0,0,0,0,0-0.223
		c0-0.225-0.223-0.225-0.446-0.225h-0.892c-0.223,0-0.223,0.225-0.446,0.225l-0.669,0.893c-0.892,1.115-2.23,1.115-2.23,1.115
		h-3.569c-0.446,0-0.669-0.225-0.669-0.67v-13.16H145.48z"/>
	<path fill="#020202" d="M136.112,54.278c0-0.223-0.223-0.223-0.223-0.223h-7.807c-0.223,0-0.446,0.223-0.446,0.223v2.008
		c0,0.223,0.223,0.223,0.446,0.223h7.807c0.223,0,0.223-0.223,0.223-0.223V54.278z"/>
	<path fill="#020202" d="M126.075,63.2h-0.669c-0.223,0-1.562,0-2.454-1.783c-2.23-3.793-3.346-4.908-3.792-5.354
		c-0.446-0.447,0-0.447,0-0.447c4.907-1.115,4.684-4.461,4.684-4.461c0-4.238-5.354-4.238-5.354-4.238H106
		c-0.223,0-0.446,0.225-0.446,0.447v0.893c0,0.223,0.223,0.445,0.446,0.445l1.115,0.223c0.446,0,0.892,0.447,0.892,0.893V62.31
		c0,0.445-0.446,0.891-0.892,1.115L106,63.647c-0.223,0-0.446,0.223-0.446,0.445v0.893c0,0.223,0.223,0.223,0.446,0.223h8.253
		c0.223,0,0.446-0.223,0.446-0.223v-0.893c0-0.223-0.223-0.445-0.446-0.445l-1.115-0.223c-0.446,0-0.892-0.447-0.892-1.115v-5.131
		c0-0.447,0.223-0.67,0.669-0.67h1.115c0,0,1.785,0,3.123,2.23c0,0,0.892,1.785,2.007,3.793s1.784,2.453,4.907,2.453h2.007
		c0.223,0,0.223-0.223,0.223-0.223V63.87C126.298,63.425,126.298,63.2,126.075,63.2z M116.26,54.726h-3.346
		c-0.446,0-0.669-0.225-0.669-0.67v-5.131c0-0.445,0.223-0.668,0.669-0.668h3.346c0,0,3.346,0,3.346,3.123
		C119.606,54.501,116.26,54.726,116.26,54.726z"/>
	<path fill="#020202" d="M91.947,46.694h8.922c0.446,0,0.892,0.447,1.115,0.67l0.892,2.453c0,0,0,0,0,0.223
		c0,0.225-0.223,0.225-0.223,0.225h-0.893c-0.223,0-0.223-0.225-0.446-0.225l-0.446-0.668c-0.892-1.34-2.007-1.115-2.007-1.115
		h-4.684c-0.446,0-0.669,0.223-0.669,0.668v2.9c0,0.445,0.223,0.67,0.669,0.67h1.115c0.669,0,1.115-0.225,1.338-0.67l0.223-0.67
		c0-0.223,0.223-0.223,0.446-0.223h0.669c0.223,0,0.446,0.223,0.446,0.223l1.562,4.686c0,0,0,0,0,0.223s0,0.223-0.223,0.223
		l-0.892-0.223h-0.223c-0.223,0-0.223-0.223-0.446-0.223l-0.446-0.893c0,0-0.446-0.893-1.562-0.893h-2.007
		c-0.446,0-0.669,0.223-0.669,0.67v7.584c0,0.445,0.223,0.668,0.669,0.668h5.13c0,0,1.338,0,2.231-1.115l0.669-0.893
		c0-0.223,0.223-0.223,0.446-0.223h0.892c0.223,0,0.446,0.223,0.446,0.223s0,0,0,0.223l-1.562,2.9
		c-0.223,0.447-0.669,0.67-1.115,0.67H87.263c-0.223,0-0.223-0.223-0.223-0.223v-0.67c0-0.223,0.223-0.445,0.446-0.445l1.115-0.225
		c0.446,0,0.893-0.445,0.893-1.115v-12.49c0-0.445-0.446-0.893-0.893-1.115l-1.115-0.223c-0.223,0-0.446-0.225-0.446-0.447v-0.668
		c0-0.225,0.223-0.447,0.223-0.447H91.947z"/>
	<path fill="#020202" d="M79.68,59.187c0-0.447-0.446-0.893-0.893-1.115h-0.892c-0.223,0-0.446-0.225-0.446-0.447v-0.445
		c0-0.223,0.223-0.223,0.446-0.223h7.584c0.223,0,0.446,0.223,0.446,0.223v0.445c0,0.223-0.223,0.447-0.446,0.447h-0.446
		c-0.446,0-0.892,0.445-0.892,1.115v2.453c0,0.445-0.223,0.67-0.669,0.893c-4.238,2.676-7.138,2.23-7.138,2.23
		c-4.907,0-9.145-4.016-9.145-9.146c0-5.129,4.015-9.145,9.145-9.145c1.338,0,2.677,0.223,4.015,0.893c0,0,0.669,0.445,1.115-0.447
		c0-0.223,0.223-0.223,0.446-0.223h0.446c0.223,0,0.446,0.223,0.446,0.223l1.115,4.016c0,0,0,0,0,0.223
		c0,0.225-0.223,0.225-0.223,0.225l-1.561,0.223H81.91c-0.223,0-0.223-0.223-0.446-0.223l-0.223-0.447
		c-1.784-3.568-5.576-3.123-5.576-3.123c-3.123,0-4.238,3.123-4.238,7.807c0.223,4.686,1.338,7.809,4.461,7.584
		c0,0,2.007,0,3.123-1.338c0.223-0.223,0.223-0.445,0.223-0.445v-2.23H79.68z"/>
	<path fill="#020202" d="M49.344,64.763c-0.223,0-0.223-0.223-0.223-0.223v-0.67c0-0.223,0.223-0.445,0.446-0.445l1.115-0.225
		c0.446,0,0.892-0.445,0.892-1.115v-12.49c0-0.445-0.446-0.893-0.892-1.115l-1.115-0.223c-0.223,0-0.446-0.225-0.446-0.447v-0.668
		c0-0.225,0.223-0.447,0.223-0.447h13.606c0.446,0,0.892,0.447,1.115,0.67l0.892,2.453c0,0,0,0,0,0.223
		c0,0.225-0.223,0.225-0.223,0.225h-0.892c-0.223,0-0.223-0.225-0.446-0.225l-0.446-0.668c-0.893-1.34-2.008-1.115-2.008-1.115
		h-4.684c-0.446,0-0.669,0.223-0.669,0.668v2.678c0,0.445,0.223,0.668,0.669,0.668h1.115c0.669,0,1.115-0.223,1.338-0.668
		l0.223-0.67c0-0.223,0.223-0.223,0.446-0.223h0.669c0.223,0,0.446,0.223,0.446,0.223l1.561,4.684c0,0,0,0,0,0.225
		c0,0.223,0,0.223-0.223,0.223h-0.893H60.72c-0.223,0-0.223-0.223-0.446-0.223l-0.446-0.893c0,0-0.446-0.893-1.561-0.893h-2.008
		c-0.446,0-0.669,0.223-0.669,0.67v7.584c0,0.445,0.223,0.668,0.669,0.668h5.13c0,0,1.338,0,2.23-1.115l0.669-0.893
		c0-0.223,0.223-0.223,0.446-0.223h0.892c0.223,0,0.223,0.223,0.223,0.223s0,0,0,0.223l-1.338,2.9
		c-0.223,0.447-0.669,0.67-1.115,0.67H49.344z"/>
	<path fill="#020202" d="M47.337,63.2l-0.223-0.223c0,0-0.892-0.223-1.338-1.561l-4.907-14.053c0,0-0.223-0.67-1.115-0.67h-3.569
		c-0.892,0-1.115,0.67-1.115,0.67l-5.354,14.053c-0.669,1.561-1.784,1.561-1.784,1.561h-0.446c-0.223,0-0.446,0.223-0.446,0.447
		v0.891c0,0.225,0.223,0.225,0.223,0.225h5.577c0.223,0,0.446-0.225,0.446-0.225v-0.891c0-0.225-0.223-0.447-0.446-0.447h-0.223
		c-0.446,0-0.892-0.445-0.892-1.115c0-0.223,0-0.223,0-0.445l0.446-1.115c0,0,0.223-0.447,0.893-0.447h6.691
		c0.669,0,0.892,0.447,0.892,0.447l0.446,1.115c0,0,0,0.223,0,0.445c0,0.447-0.446,0.893-0.892,1.115h-0.223
		c-0.223,0-0.446,0.223-0.446,0.447v0.891c0,0.225,0.223,0.225,0.446,0.225h7.138c0.223,0,0.446-0.225,0.446-0.225v-0.891
		L47.337,63.2z M39.307,58.517H33.73c-0.669,0-0.446-0.445-0.446-0.445l2.9-7.361c0,0,0.223-0.67,0.446-0.67
		c0.223,0,0.446,0.67,0.446,0.67l2.454,7.361C39.753,58.071,39.976,58.517,39.307,58.517z"/>
	<path fill="#020202" d="M7.633,63.2c-2.008-1.115-2.231-2.23-1.785-2.898c0.446-0.67,1.338-1.115,3.346,0
		c1.785,0.893,3.346,2.676,4.238,3.791C12.317,64.315,9.641,64.315,7.633,63.2z M302.51,64.763c4.685,0,7.584-0.223,10.262-2.008
		c3.346-2.008,4.684-5.354,3.346-7.361c-1.115-2.008-4.238-2.23-7.361-0.223c0,0-3.568,2.008-7.584,8.029l0,0h-2.676
		c-0.447,0-0.67-0.223-0.67-0.668v-7.584c0-0.447,0.223-0.67,0.67-0.67h2.007c1.115,0,1.562,0.893,1.562,0.893l0.445,0.893
		c0,0.223,0.224,0.223,0.447,0.223h0.223l0.669-0.223c0.224,0,0.224-0.223,0.224-0.223s0,0,0-0.225l-1.562-4.684
		c0-0.223-0.223-0.223-0.445-0.223h-0.67c-0.223,0-0.445,0.223-0.445,0.223l-0.223,0.67c-0.224,0.445-0.447,0.668-1.339,0.668
		h-1.115c-0.446,0-0.669-0.223-0.669-0.668v-2.9c0-0.445,0.223-0.67,0.669-0.67h4.685c0,0,1.338,0,2.007,1.117l0.446,0.668
		c0,0.223,0.223,0.223,0.445,0.223h0.893c0.224,0,0.224-0.223,0.224-0.223s0,0,0-0.223l-0.893-2.453
		c-0.224-0.447-0.669-0.67-1.115-0.67h-8.922h-4.685c-0.223,0-0.445,0.223-0.445,0.445v0.893c0,0.223,0.223,0.447,0.445,0.447
		l1.115,0.223c0.446,0,0.893,0.445,0.893,1.115v12.49c0,0.447-0.446,0.893-0.893,1.115l-1.115,0.225
		c-0.223,0-0.445,0.223-0.445,0.445v0.67c0,0.223,0.223,0.223,0.445,0.223h6.691h1.562c-4.016,5.354-8.031,8.477-14.275,8.922
		H29.938c-6.246-0.445-8.922-2.453-12.714-7.807l0,0c8.476-1.785,9.145-8.254,9.591-12.715c0.446-3.791,0.223-8.477,0.223-8.477
		v-2.453c0-0.668,0.446-1.115,0.893-1.115l1.115-0.223c0.223,0,0.446-0.223,0.446-0.445v-1.115c0-0.224-0.223-0.447-0.446-0.447
		H19.009c-0.223,0-0.446,0.223-0.446,0.447v1.115c0,0.223,0.223,0.445,0.446,0.445l1.115,0.223c0.446,0,0.893,0.447,0.893,1.115
		v11.152c0,1.785,0.223,6.469-2.454,8.699c-0.893,0.893-2.008,1.34-3.123,1.562l0,0c-4.015-5.576-7.361-7.361-7.361-7.361
		c-3.123-2.008-6.245-1.785-7.361,0.223c-1.115,2.008,0,5.131,3.346,7.361c2.676,1.785,6.915,2.453,10.26,2.23l0,0
		c0,0,2.677,3.791,3.792,5.354c1.115,1.561,3.569,6.021,14.275,6.021h249.375c10.929,0,14.944-5.576,16.06-7.137
		C299.164,69.224,302.51,64.763,302.51,64.763z M303.849,62.978c0.892-1.115,2.454-2.9,4.015-3.791c2.008-1.115,2.9-0.67,3.346,0
		c0.447,0.668,0,2.006-2.007,2.898C309.202,62.085,307.641,62.978,303.849,62.978z"/>
	<path fill="#020202" d="M185.407,23.943c-6.022,2.677-12.491,4.461-19.183,5.13V7.661h8.029L169.348,0.3h-8.699l-2.008,2.9
		l-2.007-2.9h-8.699l-4.907,7.361h8.03v21.413c-6.691-0.669-13.16-2.454-19.183-5.13l-6.022,8.699
		c2.677,1.115,5.354,2.23,8.03,3.123l2.23-3.346c6.915,2.23,14.275,3.346,21.636,3.346l0,0c0.223,0,0.669,0,0.892,0
		c7.807,0,15.391-1.116,22.305-3.569l2.231,3.346c2.677-0.893,5.353-2.008,8.03-3.123L185.407,23.943z M157.972,34.427
		c-7.807,0-15.391-1.338-22.306-3.792l-2.23,3.346c-1.785-0.669-3.346-1.338-5.13-2.007l4.238-6.022
		c6.246,2.677,13.16,4.238,20.298,4.907V6.099h-6.692l2.9-4.238h6.915l2.008,2.899V34.427z M181.838,30.635
		c-7.137,2.454-14.498,3.792-22.305,3.792V4.761l2.008-2.899h7.137l2.9,4.238h-6.691v24.759c7.137-0.669,13.828-2.23,20.297-4.907
		l4.238,6.022c-1.561,0.669-3.346,1.338-5.13,2.007L181.838,30.635z"/>
</g>
</svg>
