<?xml version="1.0" standalone="no"?>
<!DOCTYPE svg PUBLIC "-//W3C//DTD SVG 20010904//EN"
 "http://www.w3.org/TR/2001/REC-SVG-20010904/DTD/svg10.dtd">
<svg version="1.0" xmlns="http://www.w3.org/2000/svg"
 width="300.000000pt" height="69.000000pt" viewBox="0 0 300.000000 69.000000"
 preserveAspectRatio="xMidYMid meet">
<metadata>
Created by potrace 1.10, written by Peter Selinger 2001-2011
</metadata>
<g transform="translate(0.000000,69.000000) scale(0.100000,-0.100000)"
fill="#000000" stroke="none">
<path d="M1450 681 c0 -5 14 -39 31 -76 16 -37 28 -69 26 -71 -2 -3 -39 11
-81 30 -42 19 -76 33 -76 30 0 -3 7 -21 15 -40 13 -31 13 -40 0 -71 -9 -20
-13 -38 -11 -40 2 -2 36 10 75 28 39 18 74 30 76 27 3 -3 -10 -39 -30 -81 -19
-43 -33 -77 -31 -77 2 0 20 7 41 16 34 14 41 14 76 0 22 -9 39 -14 39 -12 0 2
-14 36 -31 76 -17 40 -28 74 -26 77 3 2 35 -10 72 -26 37 -17 71 -31 76 -31 4
0 1 16 -7 36 -15 36 -14 45 11 107 6 14 -7 11 -70 -18 -43 -19 -80 -33 -83
-30 -3 2 8 33 23 67 15 35 29 69 32 75 4 10 -4 10 -33 -1 -32 -11 -45 -11 -76
0 -21 7 -38 9 -38 5z m90 -72 c-13 -29 -14 -30 -27 -13 -19 26 -16 42 10 46
30 5 32 3 17 -33z m110 -90 c0 -27 -3 -30 -22 -23 -47 14 -52 27 -16 40 18 6
34 12 36 13 1 0 2 -13 2 -30z m-204 11 c22 0 16 -16 -11 -28 -35 -16 -35 -16
-35 14 0 20 4 25 16 20 9 -3 22 -6 30 -6z m84 -10 c0 -5 -5 -10 -11 -10 -5 0
-7 5 -4 10 3 6 8 10 11 10 2 0 4 -4 4 -10z m14 -106 c5 -17 2 -22 -18 -26 -33
-7 -38 0 -24 26 7 11 13 24 14 29 1 4 2 10 3 15 2 9 17 -16 25 -44z"/>
<path d="M6 223 c15 -69 55 -217 59 -222 3 -2 10 0 15 5 12 12 71 236 65 243
-11 11 -24 -19 -48 -114 l-25 -99 -12 59 c-19 91 -40 155 -51 155 -5 0 -7 -12
-3 -27z"/>
<path d="M196 148 c-14 -57 -29 -113 -32 -125 -4 -14 -2 -23 4 -23 6 0 16 18
22 40 10 37 14 40 45 40 31 0 35 -3 45 -40 6 -22 15 -40 20 -40 6 0 10 3 10 6
0 5 -28 119 -51 207 -17 64 -34 45 -63 -65z m59 -5 l13 -43 -32 0 -33 0 16 61
c9 34 18 53 20 43 2 -10 9 -38 16 -61z"/>
<path d="M374 242 c-23 -15 -34 -53 -34 -122 0 -62 3 -74 25 -95 13 -14 33
-25 43 -25 27 0 59 30 66 63 9 40 -17 35 -29 -5 -11 -37 -44 -49 -65 -24 -18
23 -24 136 -8 166 23 43 78 34 78 -12 0 -11 5 -18 13 -15 15 5 10 37 -10 60
-16 17 -59 23 -79 9z"/>
<path d="M520 125 c0 -77 4 -125 10 -125 6 0 10 27 10 60 l0 60 45 0 45 0 0
-61 c0 -44 3 -60 13 -57 8 3 13 39 14 126 2 101 0 122 -12 122 -11 0 -15 -13
-15 -50 l0 -50 -45 0 -45 0 0 50 c0 28 -4 50 -10 50 -6 0 -10 -48 -10 -125z"/>
<path d="M700 131 l0 -119 55 -4 c41 -2 55 0 55 11 0 9 -11 12 -40 9 l-40 -4
0 48 0 48 40 0 c22 0 40 5 40 10 0 6 -18 10 -40 10 l-40 0 0 46 0 46 40 -4
c28 -2 40 0 40 9 0 9 -17 13 -55 13 l-55 0 0 -119z"/>
<path d="M850 124 c0 -93 3 -125 12 -122 8 3 11 24 9 61 -2 54 -1 57 21 57 38
0 52 -16 57 -66 4 -26 11 -49 18 -51 17 -6 5 98 -13 113 -11 9 -10 13 3 26 23
23 19 69 -7 90 -13 10 -38 18 -61 18 l-39 0 0 -126z m84 93 c12 -9 17 -23 14
-42 -3 -27 -7 -30 -40 -33 l-38 -3 0 45 c0 41 2 46 23 46 13 0 31 -6 41 -13z"/>
<path d="M1034 224 c-19 -27 -25 -128 -11 -176 9 -35 40 -51 78 -43 40 9 53
38 53 121 1 90 -18 124 -69 124 -26 0 -39 -6 -51 -26z m86 -20 c6 -14 10 -52
10 -84 0 -68 -23 -107 -57 -96 -25 8 -33 33 -33 103 0 72 13 103 45 103 18 0
28 -7 35 -26z"/>
<path d="M1200 125 c0 -77 4 -125 10 -125 6 0 10 41 10 103 l0 102 43 -99 c23
-55 48 -101 55 -104 9 -3 12 26 12 122 0 84 -4 126 -11 126 -7 0 -10 -34 -7
-105 1 -57 0 -101 -3 -97 -3 4 -23 51 -45 104 -21 54 -45 98 -51 98 -10 0 -13
-32 -13 -125z"/>
<path d="M1475 226 c-19 -29 -22 -150 -4 -189 23 -52 92 -46 115 9 17 41 17
44 1 44 -7 0 -17 -15 -22 -32 -12 -41 -46 -49 -69 -16 -19 27 -22 125 -4 163
17 37 56 34 71 -5 14 -36 27 -39 27 -7 0 55 -85 79 -115 33z"/>
<path d="M1655 226 c-40 -60 -26 -199 21 -216 36 -14 74 -2 85 27 15 41 11
166 -7 191 -22 31 -78 30 -99 -2z m83 -21 c17 -38 15 -136 -4 -163 -19 -27
-50 -29 -64 -3 -5 11 -10 50 -10 86 0 36 5 75 10 86 15 28 54 24 68 -6z"/>
<path d="M1820 125 c0 -77 4 -125 10 -125 6 0 10 41 10 103 l1 102 33 -80 c41
-100 54 -125 66 -125 6 0 10 51 10 125 0 77 -4 125 -10 125 -6 0 -10 -41 -10
-102 l-1 -103 -42 102 c-23 57 -48 103 -54 103 -10 0 -13 -32 -13 -125z"/>
<path d="M2015 234 c-10 -11 -15 -29 -13 -52 3 -31 10 -40 48 -62 47 -28 62
-59 39 -86 -18 -22 -52 -13 -67 19 -15 32 -32 36 -32 7 0 -29 35 -60 68 -60
33 0 45 8 61 37 20 39 3 71 -50 99 -37 18 -49 30 -49 47 0 46 49 64 72 27 15
-23 28 -26 28 -6 0 41 -73 62 -105 30z"/>
<path d="M2150 235 c0 -11 7 -14 25 -9 l25 6 0 -117 c0 -89 3 -116 13 -112 8
3 12 35 13 113 l1 109 27 -3 c18 -2 26 2 26 13 0 12 -13 15 -65 15 -51 0 -65
-3 -65 -15z"/>
<path d="M2322 128 c-17 -67 -29 -124 -27 -126 9 -10 23 11 29 43 6 32 10 35
41 35 31 0 35 -3 45 -40 6 -22 15 -40 20 -40 14 0 13 10 -9 92 -11 40 -25 92
-31 116 -18 70 -34 52 -68 -80z m50 -26 c-13 -2 -26 -2 -28 1 -2 2 1 28 8 58
l12 53 16 -54 16 -55 -24 -3z"/>
<path d="M2472 130 c2 -72 7 -120 13 -120 6 0 9 40 8 102 l-1 102 45 -108 c26
-60 50 -105 57 -103 7 2 12 46 14 125 2 106 1 122 -13 122 -14 0 -16 -13 -11
-107 7 -118 8 -119 -50 20 -52 125 -65 118 -62 -33z"/>
<path d="M2637 244 c-13 -13 5 -24 29 -18 l24 6 0 -116 c0 -71 4 -116 10 -116
6 0 10 45 10 115 l0 116 26 -3 c15 -2 29 3 31 10 3 9 -12 12 -59 12 -36 0 -68
-3 -71 -6z"/>
<path d="M2800 125 c0 -77 4 -125 10 -125 6 0 10 48 10 125 0 77 -4 125 -10
125 -6 0 -10 -48 -10 -125z"/>
<path d="M2870 125 c0 -77 4 -125 10 -125 6 0 10 41 11 103 0 56 3 95 6 87 3
-8 21 -52 40 -97 51 -119 63 -112 63 37 0 78 -4 120 -11 120 -7 0 -9 -35 -7
-105 2 -57 0 -101 -3 -97 -3 4 -23 51 -45 104 -21 54 -45 98 -51 98 -10 0 -13
-32 -13 -125z"/>
</g>
</svg>
