<?xml version="1.0" encoding="utf-8"?>
<!-- Generator: Adobe Illustrator 16.0.0, SVG Export Plug-In . SVG Version: 6.00 Build 0)  -->
<!DOCTYPE svg PUBLIC "-//W3C//DTD SVG 1.1//EN" "http://www.w3.org/Graphics/SVG/1.1/DTD/svg11.dtd">
<svg version="1.1" id="Calque_1" xmlns="http://www.w3.org/2000/svg" xmlns:xlink="http://www.w3.org/1999/xlink" x="0px" y="0px"
	 width="808px" height="157px" viewBox="0 0 808 157" enable-background="new 0 0 808 157" xml:space="preserve">
<g id="g4222">
	<g id="g4228" transform="translate(236.7003,779.4093)">
		<path id="path4230" fill="#020202" d="M-171.9-668.579c2.011-0.894,5.362-1.117,6.703,1.788c1.341,2.682-0.67,5.362-2.681,6.479
			c-2.011,0.895-5.363,1.117-6.704-1.787S-173.911-667.685-171.9-668.579 M10.21-723.1C10.21-723.1,9.987-722.877,10.21-723.1
			l2.011-0.223c0,0,0,0-0.223-0.224l-6.257-27.037c-1.341-5.363,0-8.714,6.257-10.278c0,0,0,0,1.34-0.224c0,0,0.447,0,0.67,0
			l-0.67-2.905c-0.223,0.223-0.67,0.447-0.67,0.447l-1.34,0.224l-19.887,4.692l-2.011,0.447c0,0-0.447,0-0.67,0l0.67,2.905
			c0.223-0.223,0.67-0.447,0.67-0.447l1.564-0.447c2.234-0.447,8.714-2.458,10.726,6.256l3.128,13.63L-28-753.713
			c-0.447-0.223-0.447-0.447-0.447-0.447s-0.224,0.224-0.67,0.224s-15.418,3.575-15.641,3.798c0,0-0.447,0-0.67,0l0.67,2.905
			c0.223-0.223,0.67-0.447,0.67-0.447l1.34-0.223c5.14-1.118,8.044,1.117,9.385,6.479l3.352,14.078
			c1.34,6.033,1.788,10.055-5.14,11.619l-1.34,0.223c0,0-0.447,0-0.67,0l0.67,2.905c0.223-0.224,0.67-0.224,0.67-0.224l1.34-0.224
			l20.557-4.916l1.118-0.224c0,0,0.447,0,0.67,0l-0.67-2.905c-0.224,0.224-0.67,0.447-0.67,0.447l-1.341,0.223
			c-8.044,1.788-10.502-1.34-11.843-6.704l-4.022-17.205L10.21-723.1z M53.559-729.58c-5.139,0.67-14.971,1.341-21.898-3.128
			c-5.586-3.798-7.821-9.161-8.491-13.183c-0.67-4.022,0-9.608,4.245-14.748c5.363-6.479,14.971-8.938,20.11-9.832
			c6.033-0.894,9.608-0.447,12.066-0.223c1.788,0.223,6.48,1.117,8.268,0c0.894-0.67,1.341-1.564,1.341-2.458
			c0,0,0-0.224-0.224-0.224l2.458-0.447c0,0-0.224,0.223-0.224,0.67l2.011,13.854c0,0.447,0.224,0.447,0.224,0.447l-3.128,0.447
			c0.224-0.223,0-0.67,0-0.67c0-0.67-0.894-4.469-6.48-7.374c-4.916-2.682-11.396-2.458-16.312-1.564
			c-4.022,0.67-9.608,2.681-12.29,8.044c-2.011,3.798-1.564,9.161-1.117,12.066c0.447,3.128,1.788,8.044,4.692,11.172
			c4.022,4.246,10.055,4.692,14.077,4.022c4.246-0.67,7.821-2.458,10.055-4.692c2.682-2.682,2.905-5.14,2.682-7.15
			c-0.67-5.14-2.011-6.704-8.044-5.81l-2.681,0.447c0,0-0.447,0-0.447,0.223l-0.447-3.128c0,0,0.223,0.223,0.67,0.223
			c3.575-0.447,24.58-3.575,28.155-4.246c0.447,0,0.447-0.223,0.447-0.223l0.447,3.128c-0.223-0.224-0.67,0-0.67,0l-2.011,0.223
			c-5.586,0.894-6.927,2.234-6.033,7.821l1.788,11.396c0,0,0,0.447,0.223,0.67l-2.458,0.447v-0.223
			c-0.224-1.117-2.458-3.128-5.586-2.458c-2.234,0.447-4.246,2.011-6.48,2.905C60.039-731.368,57.358-730.251,53.559-729.58
			 M375.772-755.724c-0.895,2.905,1.34,4.916,3.352,5.586c2.01,0.67,5.139,0.223,6.033-2.458c0.893-2.905-1.342-4.916-3.354-5.586
			C379.794-758.852,376.665-758.629,375.772-755.724 M359.237-761.086c-0.895,2.904,1.34,4.916,3.352,5.586
			c2.01,0.67,5.139,0.224,6.033-2.458c0.893-2.905-1.342-4.916-3.354-5.586C363.259-764.214,360.13-763.991,359.237-761.086
			 M370.856-713.492c3.352-2.681,5.361-7.821,6.256-11.172c0.895-2.905,2.457-8.044,1.34-12.066c-1.562-5.586-5.361-7.82-9.83-9.161
			c-4.471-1.341-8.939-2.011-13.408,1.564c-3.352,2.682-5.139,7.597-6.256,10.502c-1.117,3.352-2.682,8.491-1.564,12.736
			c1.564,5.81,5.363,7.821,10.055,9.161C361.917-710.363,366.388-709.917,370.856-713.492 M378.007-709.246
			c-7.598,3.352-16.312,1.34-21.229-0.224s-13.184-5.139-17.205-12.29c-3.129-5.363-3.352-10.279-1.564-15.865
			c1.34-3.799,4.246-8.491,10.502-11.172c7.598-3.352,16.312-1.341,21.229,0.223c4.916,1.564,13.184,5.14,17.205,12.513
			c3.352,5.81,3.129,11.396,1.787,15.194C386.72-715.503,383.593-711.704,378.007-709.246 M476.993-698.298l-7.82,15.865
			c-2.457,4.916-2.457,9.162,4.916,12.736l1.117,0.671c0,0,0.447,0.224,0.67,0l-1.34,2.681c-0.225-0.223-0.447-0.446-0.447-0.446
			l-1.117-0.447l-18.994-9.161l-1.117-0.67c0,0-0.445-0.224-0.67-0.224l1.342-2.682c0.223,0.224,0.445,0.447,0.445,0.447l1.342,0.67
			c6.256,3.128,8.715-0.224,11.396-5.81l6.479-13.184c2.459-4.916,1.789-8.714-3.127-10.949l-1.342-0.67c0,0-0.447-0.223-0.67,0
			l1.34-2.681c0.225,0.223,0.447,0.447,0.447,0.447c0.447,0.224,14.078,6.927,14.525,7.15c0.445,0.224,0.67,0.224,0.67,0.224
			s0,0.223,0.223,0.67l14.971,34.635l6.033-12.513c3.799-8.045-2.457-10.502-4.469-11.62l-1.564-0.67c0,0-0.223-0.224-0.67,0
			l1.342-2.682c0.223,0.224,0.445,0.447,0.445,0.447l1.789,0.894l18.322,8.938l1.117,0.671c0,0,0.447,0.224,0.67,0.224l-1.34,2.682
			c-0.225-0.225-0.447-0.447-0.447-0.447c-1.342-0.67-1.117-0.67-1.117-0.67c-5.586-2.682-8.938-0.895-11.396,4.021l-12.289,25.026
			c0,0,0,0,0,0.224l-2.012-0.895h0.225L476.993-698.298L476.993-698.298z M284.157-655.396c0-2.011,0.447-3.574,3.576-3.799
			c0.223,0,0.447,0,0.67,0h0.67c0.225,0,0.447,0,0.447,0v-1.787c0,0-0.223,0-0.447,0h-15.418c-0.223,0-0.447,0-0.447,0v1.787
			c0,0,0.225,0,0.447,0h0.67c0.225,0,0.447,0,0.672,0c3.127,0.225,3.574,1.788,3.574,3.799v10.726c0,2.011-0.447,3.575-3.574,3.799
			c-0.225,0-0.447,0-0.672,0h-0.893c-0.225,0-0.447-0.224-0.447-0.224v1.788c0,0,0.223,0,0.447,0h15.641c0.225,0,0.447,0,0.447,0
			v-1.788c0,0-0.223,0-0.447,0h-0.67c-0.223,0-0.447,0-0.67,0c-3.129-0.223-3.576-1.787-3.576-3.799V-655.396 M295.106-626.794
			l13.184-23.462l0,0h-3.129l0,0l-13.184,23.462l0,0H295.106L295.106-626.794 M335.104-646.457c2.904,2.011,2.904,4.245,2.904,4.469
			s-0.223,0.224-0.223,0.224h2.234c-0.225-0.224-0.225-0.224-0.225-0.224v-7.821c0,0,0-0.223,0.225-0.223h-1.564l0,0
			c0,0.447-0.447,1.117-1.117,1.341c-0.895,0.224-2.234-0.224-4.246-0.671c-1.34-0.447-3.574-0.894-6.48-0.894
			c-1.787,0-4.469,0.224-6.479,1.341c-3.354,1.564-3.799,4.245-3.799,5.363c0,3.574,1.787,4.691,3.127,5.586
			c1.789,0.894,4.693,1.564,9.162,2.011s7.598,0.671,7.598,3.575c0,3.128-4.023,3.799-6.703,3.799c-2.012,0-5.141-0.224-8.492-2.458
			c-2.234-1.564-3.352-4.022-3.352-5.362c0,0,0-0.225,0.225-0.225h-2.012c0,0,0,0,0,0.225v8.938c0,0.223,0,0.223,0,0.223h1.564l0,0
			c0.223-0.223,0.893-1.117,1.564-1.34c1.117-0.447,2.234-0.224,4.021,0.447c2.01,0.67,4.469,1.117,6.703,1.34
			c4.021,0,10.279-0.894,11.619-5.363c0.67-2.457,0-5.362-2.234-6.926c-2.234-1.341-4.469-1.788-9.385-2.458
			c-4.021-0.447-8.268-0.447-8.268-3.353c0-2.457,2.904-3.574,5.586-3.574C329.294-648.692,332.645-648.245,335.104-646.457
			 M-207.652-654.501l4.246,2.011c2.234,0.894,3.352,4.916-0.447,7.374c-0.67,0.446,0,0-2.682,1.564
			c-0.224,0.223-0.67,0.223-0.67,0.223l1.564,2.682c0-0.224,0.447-0.447,0.447-0.447c3.352-2.011,22.792-13.63,25.92-15.418
			c0,0,0.224-0.223,0.67-0.223l-1.564-2.682c0,0,0,0.223-0.447,0.447l-1.117,0.67c-3.128,1.787-4.916,2.682-10.949,0l-34.635-15.865
			v-0.223l-1.788,1.117c0,0,0,0,0.224,0c0,0-0.224,31.953,0,33.07c0.224,5.362-1.341,10.725-6.033,13.406l-1.117,0.67
			c-0.224,0.225-0.67,0.225-0.67,0.225l1.564,2.681c0-0.224,0.447-0.446,0.447-0.446l20.781-12.29c0,0,0.223-0.224,0.67-0.224
			l-1.564-2.682c0,0,0,0.224-0.447,0.447l-1.341,0.894c-2.458,1.564-4.692,2.235-6.256,1.788c-1.117-0.447-2.682-1.788-2.682-4.469
			c0-0.895,0-3.352,0-3.352L-207.652-654.501L-207.652-654.501z M-225.975-662.992l15.418,7.374l-15.418,9.16
			C-225.975-646.457-225.975-662.992-225.975-662.992z M140.704-739.635c0,0,0,0.447,0.223,0.67c-0.223,0-0.67,0-0.67,0
			 M92.216-736.06h-1.341c-0.447,0-0.67,0.223-0.67,0.223l0,0l-0.223-2.904c0,0,0.223,0.223,0.67,0.223h1.34c0.447,0,0.67,0,1.117,0
			c5.14-0.67,6.257-3.798,6.033-7.15l-1.117-19.44c-0.224-3.575-1.788-6.48-6.927-6.48c-0.447,0-0.67,0-1.117,0h-1.118
			c-0.447,0-0.67,0.223-0.67,0.223l-0.224-2.905l0,0c0,0,0.224,0.224,0.67,0.224c0,0,0.447,0,1.341,0
			c7.15-0.447,42.902-2.682,48.041-2.905c0,0,0.447,0,0.67-0.224c0,0.224,0,0.67,0,0.67l0.67,12.513v1.117
			c0,0.447,0.224,0.67,0.224,0.67l-2.905,0.223c0,0,0.223-0.223,0.223-0.67c0-1.34-0.67-3.798-2.011-5.363
			c-3.352-4.469-8.044-5.363-11.172-5.363c-2.905,0-7.15,0.224-7.15,0.224l-8.938,0.447l0.894,14.971l3.799-0.224
			c4.022-0.447,6.927-1.117,8.714-3.352c1.341-1.788,1.341-4.469,1.341-5.586c0-0.447-0.224-0.67-0.224-0.67l2.905-0.224
			c0,0-0.223,0.224-0.223,0.67v1.117l1.117,16.759v1.117c0,0.447,0.223,0.67,0.223,0.67l-3.128,0.223c0,0,0.223-0.223,0.223-0.67
			c0-0.894-0.223-3.798-2.011-5.363c-2.234-2.011-5.14-2.681-8.938-2.458l-3.799,0.223l0.894,15.641l8.714-0.447
			c1.341,0,5.139-0.223,8.268-1.117c2.905-0.67,4.246-1.34,6.033-3.128c2.011-1.564,3.352-3.798,4.022-6.033
			c0.224-0.894,0.67-2.458,0.67-4.022c0-0.447-0.224-0.67-0.224-0.67l2.905-0.223c0,0-0.223,0.223-0.223,0.67v1.117l0.894,13.854
			c0,0,0,0.447,0.224,0.67c-0.224,0-0.67,0-0.67,0L92.216-736.06L92.216-736.06z M390.966-703.66
			c-0.447-0.223-0.67-0.447-0.67-0.447l-1.117,2.905c0,0,0.223,0,0.67,0l25.92,9.832c0.447,0.223,0.447,0.447,0.447,0.447
			l1.117-2.905c0,0-0.447,0-0.67,0c0,0-1.787-0.671-2.012-0.894c-4.691-2.012-4.916-5.363-3.574-8.715l3.127-8.268l22.121,8.491
			l-3.127,8.267c-1.342,3.353-3.576,5.587-8.492,4.022c-0.445,0-2.234-0.894-2.234-0.894c-0.447-0.224-0.67-0.447-0.67-0.447
			l-1.117,2.905c0,0,0.447,0,0.67,0l25.92,9.831c0.447,0.224,0.672,0.447,0.672,0.447l1.117-2.904c0,0-0.447,0-0.672,0
			c0,0-2.01-0.671-2.234-0.895c-4.691-2.011-4.916-5.362-3.574-8.715l6.926-18.322l0,0l0,0c1.117-3.352,3.576-5.586,8.492-4.022
			c0.447,0,2.234,0.67,2.234,0.67c0.447,0.224,0.67,0.447,0.67,0.447l1.117-2.905c0,0-0.223,0-0.67,0l-25.697-9.832l0,0
			c-0.447-0.224-0.67-0.447-0.67-0.447l-1.117,2.904c0,0,0.223,0,0.67,0c0,0,1.787,0.67,2.234,0.894
			c4.693,2.234,4.916,5.363,3.799,8.714l-2.904,7.598l-22.121-8.268l2.904-7.598c1.34-3.352,3.574-5.586,8.49-4.022
			c0.447,0,2.234,0.67,2.234,0.67c0.447,0.224,0.672,0.447,0.672,0.447l1.117-2.905c0,0-0.447,0-0.672,0
			c-0.445-0.223-25.473-9.608-25.695-9.832c-0.447-0.224-0.447-0.447-0.447-0.447l-1.117,2.904c0,0,0.223,0,0.67,0
			c0,0,1.787,0.671,2.234,0.894c4.693,2.011,4.916,5.363,3.576,8.714l-6.928,18.323c-1.34,3.352-3.574,5.586-8.49,4.022
			C393.2-702.99,390.966-703.66,390.966-703.66 M318.569-754.607c4.244,4.692,3.799,8.491,3.574,9.162
			c0,0.447-0.223,0.447-0.223,0.447l3.127,0.67c-0.223-0.223,0-0.67,0-0.67l2.906-13.854c0,0,0-0.224,0.447-0.447l-2.459-0.447
			c0,0,0,0,0,0.223c-0.447,0.894-1.117,1.788-2.682,2.011c-2.01,0.447-5.586-2.011-7.15-2.905
			c-1.787-0.894-5.139-2.905-11.172-4.246c-4.021-0.894-7.82-0.67-11.619,0.224c-6.928,1.788-8.268,6.48-8.715,8.268
			c-1.34,6.033,2.012,8.938,3.576,10.502c2.68,2.458,7.596,4.246,15.193,6.704s13.631,3.798,12.289,9.608
			c-1.117,6.033-8.713,5.139-13.629,4.245c-4.023-0.894-9.609-2.905-14.078-7.597c-3.352-3.575-4.246-8.491-4.021-10.949
			c0,0,0-0.447,0.447-0.447l-3.129-0.67c0,0,0.223,0.224,0,0.67l-3.352,16.088c0,0.447-0.223,0.447-0.223,0.447l2.457,0.447v-0.224
			c0.447-0.447,1.787-1.788,3.352-2.011c2.459-0.447,4.246,0.894,6.703,2.234c3.576,2.011,6.928,3.575,11.396,4.692
			c7.15,1.564,18.547,2.234,22.344-5.14c2.012-4.022,2.012-9.385-1.562-12.736c-3.352-3.128-7.375-4.692-15.865-7.374
			c-7.598-2.458-14.525-4.022-13.406-9.385c0.893-4.469,6.479-5.586,11.172-4.469C308.737-761.086,314.77-758.852,318.569-754.607
			 M-143.299-705.224c-1.341-3.352-1.117-6.48,3.352-8.938c0.223-0.223,0.67-0.223,0.894-0.447l1.117-0.447l0,0
			c0.447-0.224,0.67,0,0.67,0l-1.117-2.682c0,0-0.224,0.224-0.447,0.447c-25.697,10.725,1.117-0.447-25.25,10.725
			c-0.447,0.224-0.67,0-0.67,0l0,0l1.118,2.682c0,0,0.223-0.224,0.447-0.447l1.117-0.447c0.224-0.224,0.67-0.224,1.117-0.447
			c4.916-1.564,7.374,0.447,8.714,3.798l7.597,18.1c1.341,3.352,1.117,6.479-3.352,8.714c-0.224,0.224-0.67,0.224-0.894,0.447
			l-1.341,0.447c-0.447,0.223-0.67,0-0.67,0l1.117,2.682c0,0,0.224-0.224,0.447-0.447l44.243-18.547c0,0,0.447-0.223,0.67-0.223
			c-0.223-0.224-0.447-0.67-0.447-0.67l-6.48-15.642c-0.224-0.447,0-0.67,0-0.67l-2.681,1.117c0,0,0.223,0.223,0.447,0.447
			c0.447,1.341,0.894,2.905,0.894,5.586c0,3.799-1.34,7.598-4.246,10.279c-2.011,1.787-4.245,3.352-7.374,4.916
			c-0.447,0.223-4.022,1.787-4.022,1.787l-4.469,1.787L-143.299-705.224z M-68.22-715.279l3.575,2.682
			c1.788,1.34,2.234,5.586-2.234,6.927c-0.67,0.223,0,0-3.128,1.117c-0.447,0.224-0.67,0-0.67,0l0.894,2.905
			c0.224-0.223,0.447-0.447,0.447-0.447c3.799-1.117,25.25-8.268,28.825-9.385c0,0,0.224-0.224,0.67,0l-0.894-2.905
			c0,0-0.224,0.224-0.447,0.447l-1.34,0.447c-3.352,1.117-5.363,1.564-10.726-2.234l-30.389-23.015v-0.224l-2.011,0.67
			c0,0,0,0,0.223,0.223c0,0-7.15,31.283-7.374,32.4c-0.894,5.363-3.575,10.055-8.938,11.843l-1.117,0.446
			c-0.447,0.224-0.67,0-0.67,0l0.894,2.905c0.224-0.224,0.447-0.446,0.447-0.446l23.015-7.598c0,0,0.223-0.224,0.67,0l-0.894-2.905
			c0,0,0,0.224-0.447,0.447l-1.564,0.446c-2.682,0.895-5.14,1.117-6.48,0.224c-0.894-0.67-2.235-2.234-1.564-4.916
			c0.224-0.894,0.67-3.128,0.67-3.128L-68.22-715.279L-68.22-715.279z M-84.085-727.793l13.407,10.502l-16.982,5.586
			C-87.884-711.704-84.085-727.793-84.085-727.793z M550.731-624.56c0,0-0.223,0.447-0.223,0.67
			c-0.225-0.223-0.447-0.446-0.447-0.446 M508.946-649.362l-1.117-0.67c-0.447-0.224-0.67-0.224-0.67-0.224l1.564-2.458
			c0,0,0.223,0.224,0.447,0.447l1.34,0.67c0.223,0.224,0.67,0.447,0.895,0.447c4.469,2.458,7.373,0.67,9.16-2.458l10.279-16.759
			c1.787-2.904,2.234-6.256-2.012-9.161c-0.223-0.224-0.67-0.446-0.893-0.67l-1.117-0.671c-0.225-0.223-0.672-0.223-0.672-0.223
			l1.564-2.682c0,0,0.225,0.223,0.447,0.447c0,0,0.447,0.223,1.117,0.67c6.033,3.799,36.646,22.568,40.891,25.026
			c0,0,0.447,0.224,0.672,0.224c-0.225,0.223-0.447,0.446-0.447,0.446l-6.48,10.726l-0.67,0.894
			c-0.225,0.224-0.225,0.671-0.225,0.671l-2.457-1.564c0,0,0.223-0.224,0.447-0.447c0.67-1.117,1.564-3.574,1.34-5.362
			c-0.223-5.587-3.574-8.938-6.256-10.949c-2.234-1.788-6.033-4.022-6.033-4.022l-7.598-4.691l-7.82,12.736l3.129,2.011
			c3.574,2.011,6.256,3.128,8.938,2.234c2.234-0.67,3.799-2.904,4.244-3.798c0.225-0.225,0.225-0.671,0.225-0.671l2.457,1.564
			c0,0-0.223,0.224-0.447,0.446l-0.67,1.117l-8.715,14.524l-0.67,0.894c-0.223,0.224-0.223,0.671-0.223,0.671l-2.682-1.564
			c0,0,0.223-0.224,0.447-0.446c0.447-0.671,1.787-3.129,1.34-5.363c-0.67-2.904-2.682-4.916-6.033-7.15l-3.127-2.012l-8.268,13.407
			l7.373,4.47c1.117,0.67,4.469,2.681,7.373,3.798c2.682,0.894,4.246,1.118,6.705,0.894c2.457-0.223,4.914-1.34,6.703-2.457
			c0.67-0.447,2.01-1.564,2.682-2.905c0.223-0.224,0.223-0.67,0.223-0.67l2.457,1.563c0,0-0.223,0.224-0.445,0.447l-0.672,0.895
			l-7.15,11.842c0,0-0.223,0.447-0.223,0.671c-0.223-0.224-0.447-0.447-0.447-0.447L508.946-649.362L508.946-649.362z
			 M354.321-634.614c-0.225,0.447-0.672,1.117-0.895,1.34c-0.67,1.342-0.447,2.235,0,2.905c0.67,0.671,1.787,0.894,3.352,0.894
			h0.447c0.223,0,0.223,0,0.223,0v1.788c-0.223,0-0.223,0-0.223,0h-12.736h-0.225v-1.788c0,0,0,0,0.225,0h0.67
			c1.787,0,3.129-0.67,4.246-1.563s2.234-2.458,2.457-3.129l9.385-15.642l0,0h1.787l0,0l11.844,17.206
			c2.012,2.905,3.129,2.905,5.139,2.905h0.447c0.223,0,0.223,0,0.223,0v1.787c-0.223,0-0.223,0-0.223,0h-16.758h-0.225v-1.787
			c0,0,0,0,0.225,0h1.787c1.34,0,2.234-0.671,2.457-1.564c0.447-0.895-0.223-1.787-0.67-2.234l-0.893-1.341h-12.066V-634.614z
			 M359.907-643.999l-4.693,7.598h9.832L359.907-643.999L359.907-643.999z M208.184-744.775c-4.244,1.564-11.619,2.458-14.076-1.788
			c-2.459-4.246,3.799-8.714,4.691-9.608c2.234-1.788,5.588-3.575,9.832-5.81c3.352,5.139,5.586,9.162,7.598,12.737
			C213.995-747.679,211.538-746.115,208.184-744.775 M203.716-773.823c5.586,1.341,18.994,2.681,18.994,2.681
			s-6.928,1.788-13.854,4.692C205.727-771.142,203.716-773.823,203.716-773.823 M238.35-746.562c2.234,0.223,4.246-1.34,4.469-3.798
			c0.447-5.363-6.479-7.15-10.502-7.15c-4.916,0-8.043,2.458-10.502,4.245c-1.117,0.67-2.01,1.564-3.129,2.234l0,0
			c-1.562-2.458-7.373-11.619-7.596-12.066c0.445-0.224,1.117-0.447,1.564-0.67c10.502-4.916,14.971-5.586,21.449-6.256
			l-0.223-2.905c-17.875-1.788-17.875-2.011-24.133-2.682c-8.268-1.117-9.16-2.011-11.619-3.799l-1.564,2.011
			c3.799,3.352,8.045,9.608,9.609,12.066c-2.906,1.117-6.033,2.681-9.609,4.692c-2.682,1.34-6.926,3.798-10.055,6.256
			c-2.682,2.011-4.916,4.022-5.363,8.044c-0.67,5.363,4.469,8.938,8.939,9.608c6.703,1.117,12.959-0.67,18.098-3.352
			c4.693-2.458,7.15-4.246,9.832-6.033c3.576,5.363,8.492,12.066,16.312,12.513c2.457,0.223,3.574-0.224,4.469-0.67l-0.223-5.81
			c-0.447,0.224-2.234,1.564-6.258,1.341c-5.139-0.447-9.385-5.586-12.066-9.385c1.342-1.117,2.906-2.234,4.693-3.575
			c5.363-3.799,9.385-1.118,9.385-1.118C232.987-748.35,236.563-746.786,238.35-746.562 M-54.366-648.692
			c1.788,0,6.256,0,9.161,2.234c2.905,2.011,2.905,4.245,2.905,4.469s0,0.224,0,0.224h2.011c-0.224-0.224-0.224-0.224-0.224-0.224
			v-7.821c0,0,0-0.223,0.224-0.223h-1.564c0,0,0,0,0,0.223c0,0.447-0.447,1.118-1.117,1.342c-0.894,0.223-2.235-0.224-4.246-0.671
			c-1.564-0.446-3.575-0.894-7.15-0.894c-2.905,0-8.268,0.67-11.62,3.799c-2.681,2.457-3.575,5.362-3.575,7.597
			c0,2.235,0.894,5.363,3.575,7.821c3.352,2.904,8.715,3.574,11.62,3.574c4.692,0,7.597-2.011,9.608-2.011
			c1.788,0,2.905,1.117,2.905,1.788l0,0h1.564c0,0-0.224,0-0.224-0.224v-6.48c0-3.128,0.894-3.798,4.022-3.798h1.117
			c0.223,0,0.223,0,0.223,0v-1.788c-0.223,0.224-0.223,0-0.223,0h-16.088h-0.224v1.788c0,0,0,0,0.224,0h1.564
			c3.352,0,4.022,0.894,4.022,3.798c0,3.799-4.469,5.363-8.268,5.363c-2.234,0-5.139-0.894-6.927-3.353
			c-1.341-2.011-1.564-4.915-1.564-6.479c0-1.788,0.223-4.692,1.564-6.479C-59.506-647.798-56.824-648.468-54.366-648.692
			 M-2.973-628.359c0,0,0,0.224,0,0.447H-3.42h-27.038c-0.223,0-0.447,0-0.447,0l0,0v-1.787c0,0,0.224,0,0.447,0h0.894
			c0.223,0,0.447,0,0.67,0c3.128-0.224,3.575-1.788,3.575-3.799v-10.726c0-2.011-0.447-3.575-3.575-3.799c-0.224,0-0.447,0-0.67,0
			h-0.67c-0.224,0-0.447,0-0.447,0v-1.788c0,0,0.223,0,0.447,0h15.418c0.223,0,0.447,0,0.447,0v1.788c0,0-0.224,0-0.447,0h-0.67
			c-0.224,0-0.447,0-0.67,0c-3.128,0.224-3.575,1.788-3.575,3.799v14.524h5.363c1.564,0,4.469-0.224,6.927-2.234
			c2.682-2.234,2.682-4.693,2.682-5.587c0-0.224,0-0.446,0-0.446h1.788c0,0,0,0.223,0,0.446V-628.359c0,0,0,0.224,0,0.447
			 M163.495-647.798h-1.34c-2.905,0-4.469,0.894-5.81,2.234c-2.011,2.012-2.011,4.246-2.234,5.363v0.223h-1.788c0,0,0,0,0-0.223
			v-8.715c0,0,0-0.224,0-0.447c0.224,0,0.447,0,0.447,0h26.813c0,0,0.225,0,0.447,0c0,0.224,0,0.447,0,0.447v8.715
			c0,0.223,0.225,0.223,0.225,0.223h-1.789c0.225-0.223,0-0.223,0-0.223c0-1.117-0.223-3.352-2.01-5.363
			c-1.117-1.341-2.906-2.234-5.811-2.234h-1.34v14.523c0,2.012,0.447,3.576,3.574,3.799c0.225,0,0.447,0,0.67,0h0.672
			c0.223,0,0.445,0,0.445,0v1.788c0,0-0.223,0-0.445,0H158.58c-0.224,0-0.447,0-0.447,0l0,0v-1.788c0,0,0.224,0,0.447,0h0.894
			c0.224,0,0.447,0,0.67,0c3.128-0.223,3.575-1.787,3.575-3.799v-10.055L163.495-647.798L163.495-647.798z M142.938-643.106v7.15
			c-0.223,8.044-8.268,8.714-10.279,8.938c-4.245,0.223-14.077-0.225-14.077-8.938c0-3.575,0-7.821,0-7.821
			c0-3.128-0.894-4.021-4.246-4.245h-1.117c-0.223,0-0.223,0-0.223,0v-1.788c0.223,0,0.223,0,0.223,0h16.535h0.224v1.788
			c0,0,0,0-0.224,0h-1.117c-3.352,0-4.246,1.117-4.246,4.245v7.598c0,6.48,5.14,7.15,8.268,7.15c2.905,0,5.586-1.117,7.15-3.575
			c0.67-1.117,0.894-2.011,0.894-2.904c0-0.447,0-1.341,0-2.011v-5.587c0-2.011-0.67-2.905-1.341-3.575
			c-1.117-0.894-2.681-1.117-3.352-1.117h-0.894c-0.223,0-0.223,0-0.223,0v-1.787c0.223,0,0.223,0,0.223,0h13.407h0.223v1.787
			c0,0,0,0-0.223,0h-0.894c-0.447,0-2.011,0.224-3.352,1.117C143.609-646.011,142.938-645.116,142.938-643.106 M127.074-657.63
			c-1.117,0-2.682,0.67-2.682,2.458c0,1.564,1.564,2.458,2.682,2.458s2.681-0.67,2.681-2.458
			C129.978-656.735,128.414-657.63,127.074-657.63 M137.576-657.63c-1.117,0-2.681,0.67-2.681,2.458
			c0,1.564,1.564,2.458,2.681,2.458s2.682-0.67,2.682-2.458C140.257-656.735,138.693-657.63,137.576-657.63 M196.79-647.798h-1.342
			c-2.904,0-4.469,0.894-5.809,2.234c-2.012,2.012-2.012,4.246-2.012,5.363v0.223h-2.012c0,0,0.225,0,0.225-0.223v-8.715
			c0,0,0-0.224,0-0.447h0.447H213.1c0,0,0.225,0,0.447,0c0,0.224,0,0.447,0,0.447v8.715c0,0.223,0,0.223,0,0.223h-1.787
			c0-0.223,0-0.223,0-0.223c0-1.117-0.223-3.352-2.012-5.363c-1.117-1.341-2.904-2.234-5.809-2.234h-1.342v14.523
			c0,2.012,0.447,3.576,3.576,3.799c0.223,0,0.447,0,0.67,0h0.67c0.225,0,0.447,0,0.447,0v1.788c0,0-0.223,0-0.447,0h-15.641
			c-0.225,0-0.447,0-0.447,0l0,0v-1.788c0,0,0.223,0,0.447,0h0.893c0.225,0,0.447,0,0.672,0c3.127-0.223,3.574-1.787,3.574-3.799
			v-10.055L196.79-647.798L196.79-647.798z M247.288-628.359c0,0,0,0.224,0,0.447c-0.223,0-0.445,0-0.445,0h-27.932
			c-0.225,0-0.447,0-0.447,0v-1.787c0,0,0.223,0,0.447,0h0.895c0.223,0,0.445,0,0.67,0c3.127-0.224,3.574-1.788,3.574-3.799v-10.726
			c0-2.011-0.447-3.575-3.574-3.799c-0.225,0-0.447,0-0.67,0h-0.672c-0.223,0-0.447,0-0.447,0v-1.788c0,0,0.225,0,0.447,0h27.932
			c0,0,0.223,0,0.447,0c0,0.225,0,0.447,0,0.447v7.821c0,0.224,0,0.446,0,0.446h-1.787c0,0,0-0.223,0-0.446
			c0-0.671-0.447-2.011-0.895-2.905c-1.342-2.234-3.352-2.904-3.799-3.128c-1.564-0.671-3.574-0.447-4.691-0.447h-6.258v8.268h1.787
			c2.234,0,3.799-0.224,4.916-1.563c0.895-0.895,0.895-2.682,0.895-3.129c0-0.224,0-0.447,0-0.447h1.787c0,0,0,0.224,0,0.447v10.949
			c0,0.223,0,0.447,0,0.447h-2.234c0,0,0-0.224,0-0.447c0-0.447,0-2.234-0.893-3.129c-1.119-1.34-2.682-1.563-4.916-1.563h-1.789
			v8.714h6.258c1.117,0,3.127,0,4.691-0.446c0.67-0.224,2.459-0.894,3.799-3.128c0.67-1.118,0.895-2.905,0.895-3.576
			c0-0.223,0-0.446,0-0.446h1.787c0,0,0,0.224,0,0.446v8.268c0,0,0,0.224,0,0.447 M60.039-646.457
			c2.905,2.011,2.905,4.245,2.905,4.469s0,0.224,0,0.224h2.011c-0.224-0.224-0.224-0.224-0.224-0.224v-7.821
			c0,0,0-0.223,0.224-0.223h-1.564c0,0,0,0,0,0.223c0,0.447-0.447,1.118-1.117,1.342c-0.894,0.223-2.235,0-4.246-0.671
			c-1.341-0.446-3.575-0.894-6.48-0.894c-1.788,0-4.469,0.223-6.48,1.34c-3.352,1.564-3.799,4.246-3.799,5.363
			c0,3.575,1.788,4.692,3.128,5.586c1.788,0.895,4.692,1.564,9.161,2.012c4.469,0.447,7.597,0.67,7.597,3.574
			c0,3.129-4.022,3.799-6.703,3.799c-2.011,0-5.14-0.223-8.491-2.457c-2.234-1.564-3.352-4.022-3.352-5.363c0,0,0-0.223,0.223-0.223
			h-2.011v0.223v8.938c0,0.224,0,0.224,0,0.224h1.564l0,0c0.224-0.224,0.894-1.117,1.564-1.341c1.118-0.446,2.235,0,3.799,0.447
			c2.011,0.67,4.469,1.341,6.704,1.341c4.022,0,10.278-0.894,11.619-5.362c0.67-2.235,0-5.363-2.234-6.928
			c-2.234-1.34-4.469-1.787-9.385-2.234c-4.022-0.447-8.268-0.447-8.268-3.352c0-2.458,2.905-3.575,5.586-3.575
			C54.006-648.692,57.581-648.245,60.039-646.457 M22.053-634.614l0.894,1.34c0.447,0.671,0.894,1.342,0.67,2.235
			c-0.224,0.894-1.117,1.563-2.458,1.563h-1.788c-0.224,0-0.224,0-0.224,0v1.788c0.224,0,0.224,0,0.224,0H36.13h0.223v-1.788
			c0,0,0,0-0.223,0h-0.447c-2.011,0-3.128,0-5.139-2.904l-11.843-17.205l0,0h-1.788l0,0l-9.385,15.641
			c-0.224,0.447-1.341,2.234-2.458,3.129c-1.117,0.894-2.681,1.563-4.246,1.563h-0.67c-0.224,0-0.224,0-0.224,0v1.788
			c0.224,0,0.224,0,0.224,0h13.183h0.224v-1.788h-0.224h-0.447c-1.564,0-2.905-0.224-3.352-0.894c-0.447-0.447-0.67-1.564,0-2.904
			c0.223-0.224,0.447-0.895,0.894-1.342C9.987-634.614,22.053-634.614,22.053-634.614z M20.935-636.401h-9.832l4.692-7.598
			L20.935-636.401z M106.74-629.698c-3.128-0.224-3.575-1.788-3.575-3.799v-10.726c0-2.011,0.447-3.575,3.575-3.799
			c0.224,0,0.447,0,0.67,0h0.67c0.224,0,0.447,0,0.447,0v-1.788l0,0c0,0-0.223,0-0.447,0H92.662c-0.224,0-0.447,0-0.447,0v1.788
			c0,0,0.223,0,0.447,0h0.67c0.224,0,0.447,0,0.67,0c3.128,0.224,3.575,1.788,3.575,3.799v4.245H84.842v-4.245
			c0-2.011,0.447-3.575,3.575-3.799c0.224,0,0.447,0,0.67,0h0.67c0.224,0,0.447,0,0.447,0v-1.788c0,0-0.223,0-0.447,0H74.117
			c-0.224,0-0.447,0-0.447,0v1.788c0,0,0.224,0,0.447,0h0.67c0.224,0,0.447,0,0.67,0c3.128,0.224,3.575,1.788,3.575,3.799v10.726
			c0,2.011-0.447,3.575-3.575,3.799c-0.223,0-0.447,0-0.67,0h-0.894c-0.224,0-0.447,0-0.447,0v1.787c0,0,0.223,0,0.447,0h15.641
			c0.224,0,0.447,0,0.447,0v-1.787c0,0-0.224,0-0.447,0h-0.67c-0.223,0-0.447,0-0.67,0c-3.128-0.224-3.575-1.788-3.575-3.799v-4.692
			h12.736v4.692c0,2.011-0.447,3.575-3.575,3.799c-0.223,0-0.447,0-0.67,0h-0.67c-0.223,0-0.447,0-0.447,0v1.787l0,0
			c0,0,0.224,0,0.447,0h15.642c0.224,0,0.447,0,0.447,0v-1.787c0,0-0.223,0-0.447,0h-0.894
			C107.187-629.698,106.963-629.698,106.74-629.698"/>
	</g>
</g>
</svg>
