<?xml version="1.0" encoding="utf-8"?>
<!-- Generator: Adobe Illustrator 16.0.0, SVG Export Plug-In . SVG Version: 6.00 Build 0)  -->
<!DOCTYPE svg PUBLIC "-//W3C//DTD SVG 1.1//EN" "http://www.w3.org/Graphics/SVG/1.1/DTD/svg11.dtd">
<svg version="1.1" id="Calque_1" xmlns="http://www.w3.org/2000/svg" xmlns:xlink="http://www.w3.org/1999/xlink" x="0px" y="0px"
	 width="952.11px" height="475.38px" viewBox="0 0 952.11 475.38" enable-background="new 0 0 952.11 475.38" xml:space="preserve">
<g>
	<path fill="#C40D2E" d="M93.785,281.266c-52.82,0-95.076,43.575-93.755,96.396l0,0c0,52.82,40.936,95.076,93.755,96.396l0,0
		c52.82-2.641,93.755-47.538,91.114-101.678C182.258,323.521,143.964,283.906,93.785,281.266z M159.81,377.661L159.81,377.661
		c1.321,36.975-27.73,68.666-64.704,68.666c0,0,0,0-1.32,0c-38.294,0-68.666-31.691-68.666-68.666s31.692-68.665,68.666-68.665
		C130.758,308.996,161.13,339.367,159.81,377.661C159.81,376.34,159.81,376.34,159.81,377.661z"/>
	<polygon fill="#C40D2E" points="303.743,406.711 250.923,279.945 192.822,468.775 221.874,468.775 221.874,470.095 
		254.885,357.854 303.743,475.377 352.603,357.854 386.936,470.095 414.666,470.095 356.563,279.945 	"/>
	<path fill="#C40D2E" d="M854.391,274.663l-96.396,194.112h30.371l0,0l19.808-38.294h95.075l18.487,38.294h30.372L854.391,274.663z
		 M820.058,405.391l33.012-69.985l34.333,69.985H820.058z"/>
	<path fill="#C40D2E" d="M760.635,371.058h-91.114v26.41h63.384c-7.923,29.051-34.332,48.858-64.704,48.858
		c-38.294,0-68.666-30.371-68.666-68.666c0-38.294,30.372-68.665,68.666-68.665l0,0c22.448,0,42.256,11.884,55.461,29.051
		l21.128-15.847c-17.166-25.089-46.217-40.935-76.589-40.935c-50.179,0-92.435,40.935-93.755,91.113
		c-1.32,51.499,39.615,95.075,91.114,96.396c51.499,1.32,95.075-39.614,96.396-91.114
		C760.635,375.021,760.635,373.7,760.635,371.058z"/>
	<path fill="#C40D2E" d="M373.73,108.28c0-48.858,34.333-97.716,88.473-97.716c55.461,0,88.475,46.217,88.475,97.716
		c0,50.179-26.41,89.794-64.705,118.845l1.32,3.961h87.152l18.487-36.974h-9.244L571.805,212.6h-44.897
		c34.333-22.448,55.461-60.743,56.781-101.679C583.688,40.936,522.946,0,460.883,0c-62.064,0-122.807,40.936-122.807,110.921
		c1.32,40.937,22.448,79.23,56.781,101.679H349.96l-11.884-18.487h-9.244l18.487,36.974h87.153l2.641-3.961
		C400.139,198.074,373.73,157.139,373.73,108.28z"/>
	<polygon fill="#C40D2E" points="437.113,468.775 546.714,468.775 546.714,442.366 464.844,442.366 464.844,390.866 
		544.074,390.866 544.074,364.456 464.844,364.456 464.844,311.636 546.714,311.636 546.714,285.227 437.113,285.227 	"/>
</g>
</svg>
