<?xml version="1.0" encoding="utf-8"?>
<!-- Generator: Adobe Illustrator 16.0.0, SVG Export Plug-In . SVG Version: 6.00 Build 0)  -->
<!DOCTYPE svg PUBLIC "-//W3C//DTD SVG 1.1//EN" "http://www.w3.org/Graphics/SVG/1.1/DTD/svg11.dtd">
<svg version="1.1" id="Calque_1" xmlns="http://www.w3.org/2000/svg" xmlns:xlink="http://www.w3.org/1999/xlink" x="0px" y="0px"
	 width="1000px" height="535px" viewBox="0 0 1000 535" enable-background="new 0 0 1000 535" xml:space="preserve">
<g>
	<g id="patek_label">
		<g>
			<path d="M135.354,370.972H84.543l-10.248,26.9H59.351l44.833-113.152h13.664l43.979,113.152h-15.799L135.354,370.972z
				 M89.24,358.589h41.418l-20.922-54.227L89.24,358.589z"/>
			<path d="M14.518,296.677v40.99h19.641c0,0,3.416,0,5.551,0c5.978,0,10.248-1.281,13.664-4.697
				c3.843-3.416,5.551-9.393,5.551-15.371c0-5.978-1.708-11.527-5.551-15.799c-3.843-4.271-11.102-4.696-12.382-4.696
				c-1.281,0-2.135,0-2.135,0H14.518V296.677z M0,284.721h38.855c5.978,0,16.226,1.28,23.484,7.26
				c9.821,7.687,11.529,18.358,11.529,25.19s-1.708,16.228-8.54,22.631c-8.966,8.539-17.933,9.82-31.17,9.82h-19.64v48.25H0V284.721
				z"/>
			<g>
				<polygon points="517.934,284.721 532.451,284.721 532.451,333.397 583.262,333.397 583.262,284.721 597.354,284.721 
					597.354,397.872 583.262,397.872 583.262,345.78 532.451,345.78 532.451,397.872 517.934,397.872 				"/>
			</g>
			<g>
				<g>
					<rect x="619.129" y="284.721" width="14.52" height="113.151"/>
					<path d="M625.961,341.509"/>
				</g>
			</g>
			<g>
				<polygon points="654.568,284.721 669.086,284.721 669.086,385.489 718.189,385.489 718.189,397.872 654.568,397.872 				"/>
			</g>
			<g>
				<polygon points="224.167,284.721 224.167,297.104 189.582,297.104 189.582,397.872 175.491,397.872 175.491,297.104 
					140.905,297.104 140.905,284.721 				"/>
			</g>
			<g>
				<polygon points="297.609,284.721 290.35,297.104 247.651,297.104 247.651,332.544 287.788,332.544 287.788,345.353 
					247.651,345.353 247.651,385.489 289.496,385.489 296.755,397.872 233.134,397.872 233.134,284.721 				"/>
			</g>
			<g>
				<polygon points="323.228,337.667 371.904,284.721 389.838,284.721 352.69,325.284 390.691,397.872 374.466,397.872 
					342.869,335.532 323.228,356.454 323.228,397.872 309.138,397.872 309.138,284.721 323.228,284.721 				"/>
			</g>
			<g>
				<polygon points="526.473,524.688 553.8,524.688 558.497,533.226 516.652,533.226 516.652,458.503 564.901,458.503 
					586.678,520.417 608.881,458.503 618.702,458.503 590.521,533.226 581.555,533.226 557.643,467.044 526.473,467.044 
					526.473,490.101 552.52,490.101 552.52,498.64 526.473,498.64 				"/>
			</g>
			<path d="M447.48,296.677v40.99h20.066c0,0,3.416,0,5.551,0c5.979,0,10.248-1.281,13.664-4.697
				c3.844-3.416,5.553-9.393,5.553-15.371c0-5.978-1.709-11.527-5.553-15.799c-3.843-4.271-11.102-4.696-12.383-4.696
				s-2.135,0-2.135,0H447.48V296.677z M433.391,284.721h38.855c5.978,0,16.226,1.28,23.484,7.26
				c9.818,7.687,11.526,18.358,11.526,25.19s-1.708,16.228-8.54,22.631c-8.967,8.539-17.934,9.82-31.17,9.82H447.48v48.25h-14.52
				V284.721H433.391z"/>
			<g>
				<g>
					<rect x="727.583" y="284.721" width="14.518" height="113.151"/>
					<path d="M734.415,341.509"/>
				</g>
			</g>
			<path d="M777.541,296.677v40.99h20.068c0,0,3.415,0,5.551,0c5.978,0,10.247-1.281,13.663-4.697
				c3.843-3.416,5.551-9.393,5.551-15.371c0-5.978-1.708-11.527-5.551-15.799c-3.843-4.271-11.104-4.696-12.383-4.696
				c-1.28,0-2.137,0-2.137,0H777.54L777.541,296.677L777.541,296.677z M763.023,284.721h38.854c5.979,0,16.227,1.28,23.484,7.26
				c9.818,7.687,11.526,18.358,11.526,25.19s-1.708,16.228-8.54,22.631c-8.967,8.539-17.934,9.82-31.17,9.82h-20.066v48.25h-14.52
				L763.023,284.721L763.023,284.721z"/>
			<path d="M863.792,296.677v40.99h20.068c0,0,3.415,0,5.551,0c5.978,0,10.247-1.281,13.663-4.697
				c3.843-3.416,5.551-9.393,5.551-15.371c0-5.978-1.708-11.527-5.551-15.799c-3.843-4.271-11.104-4.696-12.383-4.696
				c-1.28,0-2.137,0-2.137,0H863.79L863.792,296.677L863.792,296.677z M849.274,284.721h38.854c5.979,0,16.228,1.28,23.484,7.26
				c9.818,7.687,11.526,18.358,11.526,25.19s-1.708,16.228-8.54,22.631c-8.966,8.539-17.933,9.82-31.17,9.82h-20.066v48.25h-14.519
				L849.274,284.721L849.274,284.721z"/>
			<g>
				<polygon points="1000,284.721 992.741,297.104 950.043,297.104 950.043,332.544 989.752,332.544 989.752,345.353 
					950.043,345.353 950.043,385.489 991.888,385.489 998.719,397.872 935.525,397.872 935.525,284.721 				"/>
			</g>
			<path d="M388.983,495.224v26.9c-5.978,5.979-13.663,12.383-29.034,12.383c-17.08,0-32.878-14.518-32.878-37.574
				c0-21.775,14.517-39.281,35.013-39.281c16.226,0,24.338,10.247,27.327,14.518l-6.832,6.404c0,0-6.832-12.811-20.495-12.811
				c-13.664,0-24.339,12.384-24.339,31.6c0,18.357,11.529,29.461,23.911,29.461c10.675,0,17.934-7.259,18.361-7.688v-15.371h-22.631
				v-8.111h31.597V495.224L388.983,495.224z"/>
			<g>
				<polygon points="444.064,458.503 439.368,467.044 411.188,467.044 411.188,490.101 437.66,490.101 437.66,498.64 
					411.188,498.64 411.188,524.688 438.514,524.688 443.211,533.226 401.793,533.226 401.793,458.503 				"/>
			</g>
			<g>
				<polygon points="494.876,458.503 503.843,458.503 503.843,533.226 494.449,533.226 460.718,472.167 460.718,533.226 
					451.751,533.226 451.751,458.503 463.706,458.503 494.876,514.866 				"/>
			</g>
			<g>
				<polygon points="666.951,458.503 662.682,467.044 634.5,467.044 634.5,490.101 660.547,490.101 660.547,498.64 634.5,498.64 
					634.5,524.688 661.827,524.688 666.524,533.226 625.106,533.226 625.106,458.503 				"/>
			</g>
		</g>
	</g>
	<g id="patek_calatrava">
		<g>
			<g>
				<path fill="#B79B2D" d="M552.339,116.562c8.294,0,16.587-5.068,16.587-11.519c0-2.304-1.844-6.912-8.754-6.912
					c-8.755,0-16.126,9.216-23.959,9.216c-6.91,0-7.832-5.528-7.832-5.528c4.147,0,5.529,0,10.6-2.766
					c4.604-2.304,11.057-9.214,15.663-13.82c4.146-4.607,11.059-10.598,19.352-10.598c8.294,0,16.586,5.068,16.586,14.743
					c0,12.9-10.135,16.585-10.135,21.192c0,1.382,0.46,3.226,3.224,3.226c4.146,0,11.979-5.989,19.811-5.989
					c10.601,0,19.812,11.979,19.812,11.979s-9.213,11.979-19.812,11.979c-7.83,0-15.662-5.988-19.811-5.988
					c-2.764,0-3.224,1.843-3.224,3.226c0,4.607,10.135,8.753,10.135,21.193c0,9.675-8.292,14.742-16.586,14.742
					c-8.293,0-15.203-5.989-19.352-10.597c-4.146-4.605-10.598-11.518-15.663-13.822c-5.068-2.303-6.45-2.765-10.6-2.765
					c0,0,0.922-5.528,7.832-5.528c7.833,0,15.204,9.213,23.959,9.213c6.91,0,8.754-4.605,8.754-6.909
					c0-6.911-8.293-11.519-16.587-11.519h-46.072v46.072c0,8.292,5.069,16.585,11.521,16.585c2.304,0,6.911-1.842,6.911-8.752
					c0-8.754-9.215-16.126-9.215-23.958c0-6.911,5.527-7.832,5.527-7.832c0,4.146,0,5.529,2.766,10.597
					c2.304,4.607,9.215,11.058,13.82,15.665c4.606,4.147,10.598,11.059,10.598,19.352s-5.067,16.585-14.742,16.585
					c-12.901,0-16.587-10.136-21.193-10.136c-1.383,0-3.226,0.461-3.226,3.226c0,4.146,5.988,11.979,5.988,19.812
					c0,10.598-11.979,19.812-11.979,19.812s-11.979-9.214-11.979-19.812c0-7.833,5.986-15.665,5.986-19.812
					c0-2.763-1.843-3.226-3.224-3.226c-4.609,0-8.755,10.136-21.194,10.136c-9.675,0-14.743-8.293-14.743-16.585
					s5.99-15.204,10.598-19.352c4.605-4.146,11.519-10.597,13.821-15.665c2.305-5.066,2.765-6.45,2.765-10.597
					c0,0,5.527,0.921,5.527,7.832c0,7.833-9.214,15.204-9.214,23.958c0,6.91,4.607,8.752,6.911,8.752
					c6.911,0,11.521-8.292,11.521-16.585v-46.072h-46.071c-8.295,0-16.587,5.068-16.587,11.519c0,2.304,1.843,6.909,8.754,6.909
					c8.753,0,16.126-9.213,23.958-9.213c6.911,0,7.833,5.528,7.833,5.528c-4.147,0-5.529,0-10.598,2.765
					c-4.606,2.305-11.058,9.216-15.664,13.822c-4.147,4.607-11.058,10.598-19.352,10.598s-16.586-5.068-16.586-14.743
					c0-12.901,10.135-16.586,10.135-21.193c0-1.383-0.46-3.226-3.224-3.226c-4.147,0-11.979,5.988-19.812,5.988
					c-10.598,0-19.811-11.979-19.811-11.979s9.213-11.979,19.811-11.979c7.833,0,15.665,5.989,19.812,5.989
					c2.763,0,3.224-1.844,3.224-3.226c0-4.607-10.135-8.753-10.135-21.192c0-9.675,8.292-14.743,16.586-14.743
					c8.293,0,15.203,5.989,19.352,10.598c4.146,4.606,10.598,11.517,15.664,13.82c5.067,2.305,6.449,2.766,10.598,2.766
					c0,0-0.922,5.528-7.833,5.528c-7.832,0-15.205-9.216-23.958-9.216c-6.911,0-8.754,4.607-8.754,6.912
					c0,6.91,8.292,11.52,16.587,11.52h46.071V70.951c0-8.294-5.069-16.586-11.521-16.586c-2.304,0-6.911,1.843-6.911,8.754
					c0,8.753,9.214,16.125,9.214,23.957c0,6.912-5.527,7.833-5.527,7.833c0-4.146,0-5.528-2.765-10.598
					c-2.305-4.605-9.216-11.057-13.821-15.662c-4.606-4.148-10.598-11.06-10.598-19.352c0-8.293,5.068-16.586,14.743-16.586
					c12.901,0,16.584,10.135,21.194,10.135c1.382,0,3.224-0.46,3.224-3.225c0-4.146-5.986-11.978-5.986-19.811
					C491.064,9.214,503.043,0,503.043,0s11.979,9.214,11.979,19.811c0,7.833-5.988,15.666-5.988,19.811
					c0,2.765,1.843,3.225,3.226,3.225c4.606,0,8.754-10.135,21.193-10.135c9.675,0,14.742,8.293,14.742,16.586
					c0,8.292-5.989,15.203-10.598,19.352c-4.605,4.146-11.519,10.595-13.82,15.662c-2.306,5.068-2.766,6.451-2.766,10.598
					c0,0-5.527-0.921-5.527-7.833c0-7.832,9.215-15.204,9.215-23.957c0-6.912-4.607-8.754-6.911-8.754
					c-6.911,0-11.521,8.292-11.521,16.586v46.072h46.072V116.562L552.339,116.562z"/>
			</g>
		</g>
	</g>
</g>
</svg>
