<?xml version="1.0" encoding="utf-8"?>
<!-- Generator: Adobe Illustrator 16.0.0, SVG Export Plug-In . SVG Version: 6.00 Build 0)  -->
<!DOCTYPE svg PUBLIC "-//W3C//DTD SVG 1.1//EN" "http://www.w3.org/Graphics/SVG/1.1/DTD/svg11.dtd">
<svg version="1.1" id="Calque_1" xmlns="http://www.w3.org/2000/svg" xmlns:xlink="http://www.w3.org/1999/xlink" x="0px" y="0px"
	 width="620px" height="344px" viewBox="0 0 620 344" enable-background="new 0 0 620 344" xml:space="preserve">
<g>
	<g>
		<g>
			<path fill="#A2803E" d="M234.737,60.667c0.919,0,1.854-0.15,2.719-0.352l31.185,105.977h0.027
				c3.464,11.824,20.686,20.81,41.414,20.81c20.74,0,37.922-8.982,41.426-20.81h0.016l31.158-105.908
				c0.729,0.15,1.541,0.285,2.381,0.285c6.062,0,10.959-4.897,10.959-10.986c0-6.02-4.883-10.946-10.959-10.946
				c-6.035,0-10.959,4.912-10.959,10.946c0,4.398,2.545,8.132,6.252,9.889l-36.127,77.427l5.793-104.325c0.08,0,0.162,0,0.242,0
				c6.035,0,10.975-4.897,10.975-10.946c0-6.047-4.924-10.986-10.975-10.986c-6.02,0-10.975,4.939-10.975,10.986
				c0,4.993,3.369,9.174,7.916,10.511l-24.014,101.96L311.596,21.824c5.328-0.784,9.391-5.344,9.391-10.865
				C320.986,4.924,316.102,0,310.04,0c-6.074,0-10.974,4.912-10.974,10.959c0,5.521,4.113,10.121,9.43,10.865l-11.554,112.159
				L272.955,32.227c4.614-1.298,8.024-5.494,8.024-10.511c0-6.047-4.924-10.986-10.959-10.986c-6.074,0-10.986,4.939-10.986,10.986
				c0,6.035,4.912,10.946,10.986,10.946c0.054,0,0.081,0,0.15,0l5.804,104.268l-36.205-77.51c3.545-1.826,5.939-5.494,5.939-9.769
				c0-6.02-4.884-10.946-10.974-10.946c-6.047,0-10.946,4.912-10.946,10.946C223.79,55.767,228.675,60.667,234.737,60.667z
				 M309.877,157.361c18.969,0,34.324,4.857,34.324,10.809c0,5.98-15.357,10.797-34.324,10.797s-34.339-4.803-34.339-10.797
				C275.541,162.218,290.91,157.361,309.877,157.361z"/>
			<g>
				<path fill="#026139" d="M188.805,231.543c-31.443,0-56.933,25.531-56.933,56.148c0,30.656,25.489,56.16,56.933,56.16
					c31.416,0,56.891-25.516,56.891-56.16C245.696,257.074,220.219,231.543,188.805,231.543z M212.453,320.135
					c-1.758,2.639-3.965,4.993-6.549,6.885c-4.208,3.368-9.009,5.317-14.11,5.494c-0.961,0.108-1.976,0.217-2.989,0.217
					c-1.055,0-2.043-0.108-3.043-0.217c-5.101-0.188-9.862-2.124-14.083-5.494c-2.584-1.895-4.803-4.235-6.549-6.885
					c-5.912-8.171-9.619-19.617-9.619-32.336c0-11.959,3.301-22.81,8.564-30.779c2.962-5.302,7.603-9.498,13.287-11.959
					c0.042-0.015,0.081-0.041,0.135-0.068c0.258-0.108,0.529-0.217,0.826-0.312c0.745-0.312,1.514-0.568,2.301-0.811
					c2.584-0.758,5.344-1.178,8.186-1.178c2.842,0,5.588,0.42,8.171,1.178c0.799,0.242,1.556,0.486,2.328,0.799
					c0.258,0.123,0.529,0.23,0.826,0.324c0.027,0.054,0.081,0.054,0.135,0.068c5.629,2.463,10.337,6.657,13.26,11.959
					c5.302,8.024,8.564,18.86,8.564,30.779C222.072,300.516,218.38,311.976,212.453,320.135z"/>
				<path fill="#026139" d="M358.436,299.392h-7.875v15.829c-0.242,9.484-7.971,17.114-17.506,17.114
					c-0.043,0-0.082-0.015-0.109-0.015v0.026h-24.136h-9.132v-88.938h15.247v-7.915h-15.247l0,0H298h-38.058v7.915h15.261v88.944
					h-15.261v7.928h90.621h6.711h0.621h0.541v-0.027h0.082v-25.87h-0.082V299.392L358.436,299.392L358.436,299.392z"/>
				<path fill="#026139" d="M478.686,235.52h-0.096h-0.529h-24.393h-78.605v7.929h14.951v88.956h-14.951v7.9v0.027h78.605h17.602
					h6.793h0.529h0.096h0.568v-25.841v-11.878h-7.982v12.487l0,0c-0.082,9.58-7.889,17.331-17.508,17.331c-0.055,0-0.068,0-0.096,0
					l0,0h-28.264l0,0h-10.592h-0.312V289.68v-1.406h7.943c0.08,0,0.135,0,0.203,0h4.426l0,0c7.09,0.082,12.838,5.847,12.838,12.936
					c0,0.123,0,0.216-0.014,0.285h0.014v4.127l0,0v1.664h7.211v-1.06v-17.952v-0.068v-6.426v-0.027v-17.967v-0.352h-7.197v5.086
					h-0.016c0,0.096,0.016,0.203,0.016,0.285c0,7.102-5.75,12.162-12.855,12.243l0,0h-4.625h-4.939h-3.004v-37.585h0.312h22.58
					c0.109,0,0.23,0,0.34,0h16.098c9.594,0.055,17.346,7.78,17.428,17.318l0,0v10.781h7.98v-10.16v-25.828v-0.042h-0.555V235.52
					L478.686,235.52L478.686,235.52z"/>
				<path fill="#026139" d="M614.602,332.728c-7.604-0.188-9.389-2.529-15.26-9.295l-34.678-43.159l22.945-27.396v0.016
					c6.156-7.049,7.82-9.484,15.748-9.607h4.896h1.096v-7.657h-1.096h-22.539h-1.055h-16.547h-1.055v7.657h1.055h8.227v0.027
					c0.025,0,0.025,0,0.025,0c2.004,0,3.611,1.582,3.611,3.571c0,0.8-0.258,1.503-0.664,2.097l-20.348,24.219L543,253.324
					l-3.328-4.221c-0.5-0.61-0.838-1.395-0.838-2.232c0-1.977,1.609-3.572,3.584-3.6h9.105v-7.656h-16.168h-23.637h-13.082v7.656
					h2.518c6.738,0.312,8.686,2.611,13.99,8.701l30.697,38.221l-27.641,32.983v-0.068c-6.182,7.074-7.859,9.457-15.801,9.606h-4.83
					h-1.621v7.63h1.621h26.166h1.637h14.152h1.648v-7.63h-1.648h-9.484l0,0h-0.012c-1.977,0-3.611-1.595-3.611-3.626
					c0-0.838,0.312-1.609,0.826-2.22l24.543-29.318l20.389,25.423l3.111,3.869c0.488,0.638,0.826,1.406,0.826,2.247
					c0,1.989-1.621,3.626-3.625,3.626c0,0,0,0-0.027,0l0,0h-9.781v7.63h0.082l0,0h56.943v-7.63h-5.1v0.013L614.602,332.728
					L614.602,332.728z"/>
			</g>
		</g>
	</g>
	<path fill="#026139" d="M113.917,332.229l-6.927-20.145c-3.26-8.943-5.548-13.002-10.607-17.616
		c-3.341-2.989-7.997-4.397-11.46-5.397c12.893-2.043,22.716-13.233,22.716-26.68c0-14.924-12.082-27.031-27.004-27.031
		c-0.15,0-0.312,0.027-0.514,0.027v-0.025H39.479H14.978H0.243v7.888h14.735v89.037H0v7.928h39.263l0,0h15.275v-7.93H39.479v-42.781
		h11.689c0.379,0.015,0.73,0.026,1.096,0.054h2.367c3.734,0.135,6.981,0.676,9.877,1.502c2.707,0.703,5.588,1.622,7.483,2.854
		c2.571,1.677,5.329,4.004,7.753,8.144c0.622,1.109,1.19,2.221,1.731,3.328c4.452,8.388,7.129,20.01,10.093,34.757h18.021v0.027
		h16.222v-7.943h-11.895L113.917,332.229L113.917,332.229z M65.063,281.548H39.532v-38.356h25.516
		c10.986,0.42,19.752,8.091,19.752,19.173C84.8,273.445,76.036,281.061,65.063,281.548z"/>
</g>
</svg>
