<?xml version="1.0" encoding="utf-8"?>
<!-- Generator: Adobe Illustrator 16.0.0, SVG Export Plug-In . SVG Version: 6.00 Build 0)  -->
<!DOCTYPE svg PUBLIC "-//W3C//DTD SVG 1.1//EN" "http://www.w3.org/Graphics/SVG/1.1/DTD/svg11.dtd">
<svg version="1.1" id="Calque_2" xmlns="http://www.w3.org/2000/svg" xmlns:xlink="http://www.w3.org/1999/xlink" x="0px" y="0px"
	 width="283.464px" height="92.976px" viewBox="0 0 283.464 92.976" enable-background="new 0 0 283.464 92.976"
	 xml:space="preserve">
<g>
	<path fill="#C3A07D" d="M13.724,45.905L8.282,67.668H5.44l-5.441-21.764h3.326l3.547,16.42l3.524-16.42H13.724z"/>
	<path fill="#C3A07D" d="M28.673,67.668h-3.371L24.2,63.309h-5.948l-1.123,4.359h-3.371l5.595-21.764h3.811L28.673,67.668z
		 M19.288,59.577h4.119l-2.137-8.449L19.288,59.577z"/>
	<path fill="#C3A07D" d="M44.788,60.235c-0.022,2.209-0.947,4.717-2.159,6c-0.947,1.016-2.754,2.029-4.737,2.121
		c-3.568,0.148-6.058-2.957-6.917-7.555c-0.175-1.016-0.308-2.389-0.308-3.82c0-1.465,0.111-2.957,0.375-4.18
		c0.903-4.061,2.82-7.256,6.983-7.256c1.146,0,2.755,0.182,4.318,1.703c2.313,2.119,2.423,4.926,2.445,6.029h-3.15
		c-0.088-1.223-0.837-4.297-4.053-3.969c-1.499,0.148-2.666,1.609-3.194,3.461c-0.221,0.777-0.441,2.209-0.507,3.762
		c-0.044,1.553,0.066,3.225,0.507,4.568c0.528,1.582,1.256,2.537,2.07,3.045c0.418,0.238,0.837,0.357,1.3,0.357
		c0.44,0.031,0.925-0.059,1.388-0.238c2.291-0.865,2.357-3.074,2.489-4.029H44.788z"/>
	<path fill="#C3A07D" d="M47.708,45.905h3.304v8.18h6.367v-8.18h3.304v21.764h-3.304v-9.852h-6.367v9.852h-3.304V45.905z"/>
	<path fill="#C3A07D" d="M76.093,45.905v3.732h-8.327v4.955h7.688v3.732h-7.688v5.611h8.701v3.732H64.461V45.905H76.093z"/>
	<path fill="#C3A07D" d="M79.789,45.905h8.922c1.608,0.09,3.238,1.105,3.701,3.463c0.22,0.955,0.55,2.508,0.154,4.389
		s-1.102,2.566-2.181,3.432c0.551,0.508,1.608,1.045,1.784,3.016c0.088,0.896,0.133,3.764,0.154,4.867
		c0,1.225,0.264,1.492,0.617,1.791v0.807h-3.547c-0.265-0.658-0.397-1.314-0.44-2.031c-0.044-1.074-0.044-2.805,0-4.389
		c-0.044-1.463-0.837-2.178-1.984-2.178h-3.876v8.598h-3.305V45.905z M83.094,55.338h4.516c0.771,0,2.158-1.105,1.96-3.254
		c0-1.553-0.528-2.447-2.004-2.447h-4.472V55.338z"/>
	<path fill="#C3A07D" d="M108.505,65.637c-1.343,1.881-3.304,2.719-5.353,2.719c-2.049,0-4.01-0.838-5.353-2.719
		c-1.498-2.119-2.379-5.402-2.379-8.688c0-3.283,0.881-6.566,2.379-8.686c1.343-1.881,3.304-2.719,5.353-2.719
		c2.049,0,4.01,0.838,5.353,2.719c1.499,2.119,2.38,5.402,2.38,8.686C110.885,60.235,110.003,63.518,108.505,65.637z
		 M106.104,62.981c1.057-1.314,1.586-3.672,1.608-6.031c-0.022-2.357-0.551-4.717-1.608-6.031c-0.837-1.043-1.895-1.461-2.953-1.461
		c-1.057,0-2.115,0.418-2.952,1.461c-1.058,1.314-1.586,3.674-1.608,6.031c0.022,2.359,0.55,4.717,1.608,6.031
		c0.837,1.045,1.895,1.463,2.952,1.463C104.21,64.444,105.267,64.026,106.104,62.981z"/>
	<path fill="#C3A07D" d="M117.049,45.905l6.498,14.957V45.905h3.304v21.764h-3.259l-6.5-15.166v15.166h-3.304V45.905H117.049z"/>
	<path fill="#C3A07D" d="M151.919,60.235c-0.021,2.209-0.947,4.717-2.16,6c-0.945,1.016-2.754,2.029-4.734,2.121
		c-3.571,0.148-6.059-2.957-6.918-7.555c-0.175-1.016-0.309-2.389-0.309-3.82c0-1.465,0.111-2.957,0.375-4.18
		c0.904-4.061,2.819-7.256,6.985-7.256c1.145,0,2.752,0.182,4.316,1.703c2.314,2.119,2.424,4.926,2.445,6.029h-3.15
		c-0.086-1.223-0.838-4.297-4.053-3.969c-1.5,0.148-2.666,1.609-3.194,3.461c-0.221,0.777-0.441,2.209-0.507,3.762
		c-0.045,1.553,0.065,3.225,0.507,4.568c0.528,1.582,1.254,2.537,2.071,3.045c0.418,0.238,0.836,0.357,1.299,0.357
		c0.441,0.031,0.926-0.059,1.387-0.238c2.293-0.865,2.357-3.074,2.49-4.029H151.919z"/>
	<path fill="#C3A07D" d="M167.308,65.637c-1.344,1.881-3.305,2.719-5.354,2.719s-4.01-0.838-5.352-2.719
		c-1.498-2.119-2.381-5.402-2.381-8.688c0-3.283,0.883-6.566,2.381-8.686c1.342-1.881,3.303-2.719,5.352-2.719
		s4.01,0.838,5.354,2.719c1.498,2.119,2.379,5.402,2.379,8.686C169.687,60.235,168.806,63.518,167.308,65.637z M164.906,62.981
		c1.059-1.314,1.588-3.672,1.607-6.031c-0.02-2.357-0.549-4.717-1.607-6.031c-0.836-1.043-1.895-1.461-2.951-1.461
		s-2.115,0.418-2.953,1.461c-1.057,1.314-1.586,3.674-1.607,6.031c0.021,2.359,0.551,4.717,1.607,6.031
		c0.838,1.045,1.896,1.463,2.953,1.463S164.07,64.026,164.906,62.981z"/>
	<path fill="#C3A07D" d="M175.853,45.905l6.496,14.957V45.905h3.307v21.764h-3.262l-6.498-15.166v15.166h-3.307V45.905H175.853z"/>
	<path fill="#C3A07D" d="M197.916,52.532c0.043-1.762-1.035-3.373-3.307-3.432c-1.605-0.031-2.797,0.715-2.906,2.506
		c-0.088,1.492,0.285,1.791,1.012,2.18c0.377,0.537,3.416,1.193,4.033,1.344c0.879,0.209,2.777,0.746,3.789,2.15
		c1.85,2.625,0.992,7.791-1.012,9.553c-1.367,1.193-3.238,1.492-5.025,1.523c-0.814,0.029-2.756-0.359-3.941-1.523
		c-1.434-1.404-2.139-3.553-2.248-5.613h3.215c0,0.568,0.133,1.463,0.684,2.238c0.727,1.016,1.916,1.344,3.02,1.285
		c1.102-0.029,2.137-0.479,2.555-1.016c0.707-0.895,0.859-2.598,0.066-3.672c-1.059-1.492-4.23-1.492-6.301-2.447
		c-1.74-0.807-3.172-2.508-2.906-6.031c0.262-3.463,2.113-6.031,6.033-6.031c0.861,0,3.855,0.09,5.422,2.777
		c0.834,1.463,1.057,3.492,0.924,4.209H197.916z"/>
	<path fill="#C3A07D" d="M216.083,45.905v3.732h-4.691v18.031h-3.307V49.637h-4.865v-3.732H216.083z"/>
	<path fill="#C3A07D" d="M230.56,67.668h-3.369l-1.102-4.359h-5.947l-1.125,4.359h-3.449l5.672-21.764h3.814L230.56,67.668z
		 M221.175,59.577h4.121l-2.137-8.449L221.175,59.577z"/>
	<path fill="#C3A07D" d="M236.343,45.905l6.5,14.957V45.905h3.303v21.764h-3.258l-6.502-15.166v15.166h-3.303V45.905H236.343z"/>
	<path fill="#C3A07D" d="M261.271,45.905v3.732h-4.691v18.031h-3.307V49.637h-4.867v-3.732H261.271z"/>
	<path fill="#C3A07D" d="M266.861,67.668h-3.305V45.905h3.305V67.668z"/>
	<path fill="#C3A07D" d="M273.66,45.905l6.498,14.957V45.905h3.307v21.764h-3.262l-6.5-15.166v15.166h-3.305V45.905H273.66z"/>
</g>
<path fill="#C3A07D" d="M130.343,17.254l-2.788-7.756l14.339,6.191c0.118,0.043,0.242,0.069,0.375,0.069
	c0.287,0,0.548-0.116,0.737-0.306l0,0c0.189-0.189,0.307-0.45,0.307-0.738c0-0.133-0.025-0.259-0.07-0.375L137.054,0l7.75,2.789l0,0
	L152.56,0l-6.191,14.339c-0.043,0.116-0.068,0.242-0.068,0.375c0,0.288,0.117,0.549,0.307,0.738l0,0
	c0.188,0.19,0.447,0.306,0.74,0.306c0.131,0,0.256-0.026,0.371-0.069l14.334-6.191l-2.783,7.756l2.783,7.751l-14.334-6.19
	c-0.115-0.045-0.24-0.069-0.371-0.069c-0.293,0-0.553,0.117-0.74,0.305l0,0c-0.189,0.188-0.307,0.45-0.307,0.739
	c0,0.13,0.025,0.257,0.068,0.374l6.191,14.344l-7.756-2.791l-7.75,2.791l6.189-14.344c0.045-0.117,0.07-0.244,0.07-0.374
	c0-0.29-0.117-0.551-0.307-0.739l0,0c-0.189-0.188-0.451-0.307-0.737-0.307c-0.133,0-0.257,0.026-0.375,0.071l-14.339,6.19
	L130.343,17.254z"/>
<path fill="#C3A07D" d="M105.724,86.426c0-3.311,0.802-6.012,4.061-6.012c1.098,0,2.039,0.174,3.259,0.609l-0.348,1.289
	c-1.308-0.418-1.952-0.504-2.702-0.504c-2.196,0-2.719,2.09-2.719,4.617c0,2.703,0.488,4.793,2.597,4.793
	c0.662,0,1.22-0.227,1.691-0.574v-3.086h-1.761v-1.393h3.242v5.42c-0.976,0.592-1.934,1.027-3.259,1.027
	C106.525,92.614,105.724,89.825,105.724,86.426z"/>
<path fill="#C3A07D" d="M125.435,82.286h-4.671v3.625h4.043v1.395h-4.043v4.043h4.74v1.395h-6.222V80.891h6.152V82.286z"/>
<path fill="#C3A07D" d="M131.499,92.786V80.934h1.447l4.427,8.662h0.035v-8.662h1.429v11.852h-1.464l-4.427-8.486h-0.035v8.486
	H131.499z"/>
<path fill="#C3A07D" d="M151.21,82.276h-4.672v3.625h4.043v1.395h-4.043v4.043h4.74v1.395h-6.221V80.881h6.152V82.276z
	 M146.748,78.094h1.186l0.801,2.09h-0.783L146.748,78.094z"/>
<path fill="#C3A07D" d="M160.951,90.643l2.441-9.795h1.568l-3.139,11.938h-1.83l-3.205-11.938h1.654l2.492,9.795H160.951z"/>
<path fill="#C3A07D" d="M176.636,82.286h-4.672v3.625h4.045v1.395h-4.045v4.043h4.742v1.395h-6.223V80.891h6.152V82.286z"/>
</svg>
