<?xml version="1.0" standalone="no"?>
<!DOCTYPE svg PUBLIC "-//W3C//DTD SVG 20010904//EN"
 "http://www.w3.org/TR/2001/REC-SVG-20010904/DTD/svg10.dtd">
<svg version="1.0" xmlns="http://www.w3.org/2000/svg"
 width="1200.000000pt" height="456.000000pt" viewBox="0 0 1200.000000 456.000000"
 preserveAspectRatio="xMidYMid meet">
<metadata>
Created by potrace 1.16, written by Peter Selinger 2001-2019
</metadata>
<g transform="translate(0.000000,456.000000) scale(0.100000,-0.100000)"
fill="#000000" stroke="none">
<path d="M5952 4443 c-8 -15 -142 -424 -242 -735 l-31 -98 -443 0 c-472 0
-473 0 -464 -47 2 -10 160 -132 358 -275 261 -190 354 -263 352 -276 -2 -9
-63 -198 -135 -420 -138 -425 -141 -438 -86 -436 15 0 158 97 373 255 192 139
350 254 351 254 1 0 159 -114 351 -254 213 -156 358 -255 373 -255 55 -2 52
11 -88 446 -74 227 -134 416 -135 420 -1 3 159 123 354 265 196 143 356 266
358 276 9 47 8 47 -463 47 l-443 0 -83 258 c-186 574 -191 587 -221 590 -18 2
-30 -3 -36 -15z m470 -1023 l271 0 -214 -155 c-118 -86 -215 -161 -216 -168
-2 -6 33 -122 77 -257 43 -134 78 -245 77 -246 -1 -1 -96 68 -212 152 -115 85
-214 154 -220 153 -5 0 -104 -69 -220 -153 -115 -84 -211 -153 -212 -152 -1 1
34 112 78 246 43 135 78 251 77 257 -2 7 -99 82 -217 168 l-214 155 271 0 271
0 83 257 83 256 83 -256 83 -257 271 0z"/>
<path d="M150 1395 l0 -125 554 -2 553 -3 -598 -470 -599 -470 0 -117 0 -118
860 0 860 0 0 125 0 125 -611 2 -611 3 601 473 601 473 0 115 0 114 -805 0
-805 0 0 -125z"/>
<path d="M2420 805 l0 -715 735 0 735 0 0 125 0 125 -570 0 -570 0 0 180 0
180 540 0 540 0 0 125 0 125 -540 0 -540 0 0 160 0 160 555 0 555 0 0 125 0
125 -720 0 -720 0 0 -715z"/>
<path d="M4510 805 l0 -715 165 0 165 0 2 517 3 517 550 -517 550 -517 177 0
178 0 0 715 0 715 -165 0 -165 0 -2 -517 -3 -517 -549 517 -549 517 -179 0
-178 0 0 -715z"/>
<path d="M7070 805 l0 -715 170 0 170 0 0 715 0 715 -170 0 -170 0 0 -715z"/>
<path d="M7940 1395 l0 -125 340 0 340 0 0 -590 0 -590 165 0 165 0 0 590 0
590 340 0 340 0 0 125 0 125 -845 0 -845 0 0 -125z"/>
<path d="M10150 805 l0 -715 170 0 170 0 0 310 0 310 540 0 540 0 0 -310 0
-310 170 0 170 0 0 715 0 715 -170 0 -170 0 0 -285 0 -285 -540 0 -540 0 0
285 0 285 -170 0 -170 0 0 -715z"/>
</g>
</svg>
